<svg width="500" height="500" viewBox="0 0 500 500" fill="none" xmlns="http://www.w3.org/2000/svg">
<path d="M250 477.02C373.38 477.02 473.4 418.271 473.4 345.8C473.4 273.329 373.38 214.58 250 214.58C126.62 214.58 26.6 273.329 26.6 345.8C26.6 418.271 126.62 477.02 250 477.02Z" fill="#F5F5F5"/>
<path d="M94 345.91C106.92 353.37 106.92 365.47 94 372.91C81.08 380.35 60.11 380.37 47.18 372.91C34.25 365.45 34.25 353.34 47.18 345.91C60.11 338.48 81 338.44 94 345.91Z" fill="#E0E0E0"/>
<path d="M122.34 363.06L239.6 430.76C240.942 431.441 242.425 431.796 243.93 431.796C245.435 431.796 246.918 431.441 248.26 430.76L446.76 316.16C449.15 314.78 449.15 312.54 446.76 311.16L329.5 243.45C328.158 242.769 326.675 242.414 325.17 242.414C323.665 242.414 322.182 242.769 320.84 243.45L122.34 358.06C119.94 359.44 119.94 361.68 122.34 363.06Z" fill="#E0E0E0"/>
<path d="M418.28 291.88L410.11 287.16C410.11 287.16 405.24 266.95 407.18 248.77C409.91 223.21 423.66 212.08 433.13 215.77C439.43 218.25 441.38 225.41 430.79 240.64C424.55 249.65 416.88 268.35 418.28 291.88Z" fill="#001E3B"/>
<g opacity="0.3">
<path d="M418.28 291.88L410.11 287.16C410.11 287.16 405.24 266.95 407.18 248.77C409.91 223.21 423.66 212.08 433.13 215.77C439.43 218.25 441.38 225.41 430.79 240.64C424.55 249.65 416.88 268.35 418.28 291.88Z" fill="black"/>
</g>
<path d="M414.89 282H415C415.073 281.987 415.143 281.959 415.205 281.919C415.268 281.878 415.321 281.826 415.363 281.764C415.405 281.703 415.434 281.634 415.449 281.561C415.464 281.488 415.464 281.413 415.45 281.34C410.97 257.77 419.21 231.27 429.45 220.25C429.547 220.138 429.596 219.992 429.588 219.844C429.579 219.696 429.513 219.557 429.404 219.457C429.295 219.357 429.151 219.303 429.002 219.307C428.854 219.312 428.713 219.374 428.61 219.48C418.23 230.71 409.83 257.63 414.38 281.55C414.402 281.671 414.465 281.782 414.557 281.863C414.65 281.945 414.767 281.993 414.89 282Z" fill="white"/>
<path d="M439.68 304.24C440.97 304.89 444.4 301.95 445.36 301.24C446.998 299.997 448.289 298.355 449.11 296.47C450.023 294.328 450.25 291.956 449.76 289.68C449.509 288.478 449.175 287.295 448.76 286.14L447.59 282.72C447.127 281.619 446.892 280.435 446.9 279.24C447.08 276.84 449.11 275.07 450.96 273.54C452.96 271.84 455.1 269.63 454.96 266.77C454.692 264.554 453.697 262.49 452.13 260.9C450.68 259.24 448.97 257.79 447.64 256.02C446.604 254.792 446.018 253.247 445.98 251.64C446.062 250.65 446.344 249.687 446.81 248.81C447.882 246.98 448.805 245.068 449.57 243.09C450.17 241.09 449.94 238.56 448.31 237.21C446.96 236.1 445.05 236.03 443.31 236.21C441.695 236.491 440.16 237.119 438.81 238.05C434.39 240.81 432.07 246.33 427.34 248.51C425.457 249.204 423.534 249.782 421.58 250.24C419.66 250.85 417.73 251.94 416.93 253.77C415.33 257.4 418.84 261.59 417.78 265.41C416.85 268.79 413.69 270.22 412.03 273.31C411.35 274.666 411.129 276.207 411.4 277.7C411.683 280.231 412.429 282.688 413.6 284.95C414.915 287.276 416.374 289.517 417.97 291.66C417.97 291.66 439.48 304.14 439.68 304.24Z" fill="#001E3B"/>
<g opacity="0.15">
<path d="M439.68 304.24C440.97 304.89 444.4 301.95 445.36 301.24C446.998 299.997 448.289 298.355 449.11 296.47C450.023 294.328 450.25 291.956 449.76 289.68C449.509 288.478 449.175 287.295 448.76 286.14L447.59 282.72C447.127 281.619 446.892 280.435 446.9 279.24C447.08 276.84 449.11 275.07 450.96 273.54C452.96 271.84 455.1 269.63 454.96 266.77C454.692 264.554 453.697 262.49 452.13 260.9C450.68 259.24 448.97 257.79 447.64 256.02C446.604 254.792 446.018 253.247 445.98 251.64C446.062 250.65 446.344 249.687 446.81 248.81C447.882 246.98 448.805 245.068 449.57 243.09C450.17 241.09 449.94 238.56 448.31 237.21C446.96 236.1 445.05 236.03 443.31 236.21C441.695 236.491 440.16 237.119 438.81 238.05C434.39 240.81 432.07 246.33 427.34 248.51C425.457 249.204 423.534 249.782 421.58 250.24C419.66 250.85 417.73 251.94 416.93 253.77C415.33 257.4 418.84 261.59 417.78 265.41C416.85 268.79 413.69 270.22 412.03 273.31C411.35 274.666 411.129 276.207 411.4 277.7C411.683 280.231 412.429 282.688 413.6 284.95C414.915 287.276 416.374 289.517 417.97 291.66C417.97 291.66 439.48 304.14 439.68 304.24Z" fill="black"/>
</g>
<path d="M427.17 297.72C427.245 297.714 427.318 297.693 427.385 297.658C427.451 297.623 427.511 297.576 427.559 297.518C427.607 297.461 427.644 297.394 427.666 297.322C427.689 297.251 427.697 297.175 427.69 297.1C425.62 274.68 434.96 249.34 442.29 241.74C442.353 241.69 442.405 241.626 442.441 241.554C442.478 241.483 442.499 241.404 442.503 241.323C442.507 241.242 442.494 241.162 442.464 241.087C442.435 241.012 442.389 240.944 442.332 240.887C442.274 240.831 442.205 240.787 442.129 240.76C442.053 240.732 441.972 240.721 441.892 240.727C441.811 240.733 441.733 240.756 441.662 240.794C441.591 240.833 441.529 240.886 441.48 240.95C433.99 248.7 424.48 274.47 426.56 297.2C426.573 297.35 426.644 297.488 426.758 297.585C426.872 297.683 427.02 297.731 427.17 297.72Z" fill="white"/>
<path d="M429.4 270.07H429.57C434.817 268.329 440.239 267.172 445.74 266.62C445.89 266.605 446.027 266.531 446.123 266.415C446.218 266.299 446.264 266.15 446.25 266C446.246 265.925 446.227 265.852 446.194 265.785C446.161 265.718 446.114 265.659 446.057 265.611C446 265.563 445.933 265.528 445.861 265.507C445.789 265.486 445.714 265.48 445.64 265.49C440.042 266.06 434.523 267.237 429.18 269C429.056 269.049 428.953 269.14 428.889 269.258C428.825 269.375 428.804 269.511 428.831 269.642C428.857 269.773 428.928 269.89 429.032 269.974C429.136 270.058 429.266 270.102 429.4 270.1V270.07Z" fill="white"/>
<path d="M126.34 350.62C126.463 352.281 126.975 353.89 127.835 355.316C128.695 356.742 129.879 357.946 131.29 358.83L239 421C240.534 421.772 242.228 422.174 243.945 422.174C245.662 422.174 247.356 421.772 248.89 421L438.5 311.53C439.995 310.742 441.247 309.561 442.12 308.114C442.993 306.668 443.454 305.01 443.454 303.32C443.454 301.63 442.993 299.972 442.12 298.526C441.247 297.079 439.995 295.898 438.5 295.11L330.81 232.92C329.278 232.141 327.584 231.735 325.865 231.735C324.146 231.735 322.452 232.141 320.92 232.92L131.29 342.4C129.878 343.286 128.695 344.492 127.835 345.92C126.975 347.348 126.463 348.958 126.34 350.62Z" fill="#37474F"/>
<path d="M131.29 348.11L239 410.3C240.532 411.079 242.226 411.485 243.945 411.485C245.664 411.485 247.358 411.079 248.89 410.3L438.5 300.82C441.24 299.24 441.24 296.68 438.5 295.11L330.81 232.92C329.278 232.141 327.584 231.735 325.865 231.735C324.146 231.735 322.452 232.141 320.92 232.92L131.29 342.4C128.56 344 128.56 346.54 131.29 348.11Z" fill="#455A64"/>
<path d="M243.93 411.49V422.2C242.189 422.245 240.467 421.838 238.93 421.02L131.29 358.83C129.839 358.067 128.617 356.933 127.748 355.544C126.879 354.154 126.394 352.559 126.343 350.921C126.292 349.283 126.677 347.66 127.458 346.219C128.24 344.779 129.389 343.571 130.79 342.72C128.57 344.31 128.79 346.64 131.29 348.12L239 410.31C240.518 411.112 242.214 411.518 243.93 411.49Z" fill="#263238"/>
<path d="M121.7 342.58C119.14 341.1 119.28 338.58 119.28 335.45V186.7C119.384 184.98 119.89 183.308 120.759 181.819C121.627 180.331 122.834 179.067 124.28 178.13L313.86 68.6501C315.331 67.8707 316.964 67.4483 318.629 67.417C320.293 67.3858 321.941 67.7465 323.44 68.4701C326.01 69.9501 325.87 72.4701 325.87 75.6101V224.35C325.777 226.067 325.28 227.738 324.42 229.227C323.559 230.716 322.361 231.981 320.92 232.92L131.29 342.4C129.818 343.182 128.183 343.606 126.517 343.637C124.85 343.668 123.2 343.306 121.7 342.58Z" fill="#37474F"/>
<path d="M325.87 75.6C325.87 72.45 323.65 71.18 320.92 72.75L131.29 182.24C129.825 183.148 128.619 184.419 127.79 185.93L120.74 181.83C121.571 180.317 122.776 179.043 124.24 178.13L313.85 68.65C315.322 67.8682 316.957 67.4445 318.623 67.4132C320.29 67.382 321.94 67.744 323.44 68.47C326 70 325.87 72.45 325.87 75.6Z" fill="#455A64"/>
<path d="M130.71 342.7C129.292 343.34 127.752 343.66 126.197 343.64C124.642 343.619 123.11 343.257 121.71 342.58C119.15 341.1 119.28 338.58 119.28 335.45V186.7C119.336 184.979 119.835 183.301 120.73 181.83L127.79 185.92C126.901 187.394 126.402 189.07 126.34 190.79V339.55C126.34 342.47 128.25 343.79 130.71 342.7Z" fill="#263238"/>
<path d="M134 187.94L316.78 82.41C318.42 81.41 319.78 82.23 319.78 84.12V214C319.721 215.033 319.419 216.037 318.897 216.93C318.376 217.824 317.65 218.581 316.78 219.14L134 324.64C132.36 325.58 131 324.82 131 322.92V193.08C131.06 192.048 131.363 191.044 131.885 190.151C132.406 189.258 133.131 188.5 134 187.94Z" fill="#FAFAFA"/>
<path d="M145 342.7L321 241.07C321.765 240.68 322.611 240.477 323.47 240.477C324.329 240.477 325.175 240.68 325.94 241.07L328.87 242.68C330.24 243.47 330.24 244.75 328.87 245.54L152.87 347.14C152.097 347.537 151.24 347.745 150.37 347.745C149.5 347.745 148.643 347.537 147.87 347.14L144.97 345.55C143.61 344.76 143.61 343.48 145 342.7Z" fill="#263238"/>
<path d="M158.78 350.9L334.78 249.28C335.462 248.889 336.226 248.664 337.01 248.62C337.795 248.577 338.579 248.717 339.3 249.03L385.11 275.49C386.24 276.14 386.05 277.31 384.69 278.1L208.9 379.58C208.216 379.969 207.451 380.195 206.665 380.24C205.88 380.285 205.094 380.148 204.37 379.84L158.37 353.51C157.23 352.86 157.42 351.69 158.78 350.9Z" fill="#263238"/>
<path d="M311.3 292L316.82 288.82C317.05 288.69 317.07 288.48 316.82 288.36L311.55 285.36C311.426 285.298 311.289 285.266 311.15 285.266C311.011 285.266 310.874 285.298 310.75 285.36L305.24 288.55C305 288.68 304.98 288.89 305.24 289.01L310.51 292.01C310.633 292.071 310.769 292.102 310.906 292.1C311.044 292.098 311.178 292.064 311.3 292ZM303.3 281L297.79 284.18C297.55 284.31 297.53 284.52 297.74 284.64L303.01 287.64C303.134 287.702 303.271 287.734 303.41 287.734C303.549 287.734 303.686 287.702 303.81 287.64L309.32 284.45C309.56 284.32 309.58 284.11 309.37 283.99L304.1 280.99C303.971 280.921 303.826 280.885 303.679 280.887C303.532 280.889 303.388 280.928 303.26 281H303.3ZM285.49 291.28L276.17 296.66C275.93 296.79 275.91 297 276.12 297.12L281.39 300.17C281.514 300.232 281.651 300.264 281.79 300.264C281.929 300.264 282.066 300.232 282.19 300.17L291.52 294.78C291.75 294.65 291.77 294.44 291.52 294.32L286.24 291.32C286.124 291.245 285.992 291.199 285.855 291.185C285.717 291.171 285.579 291.19 285.45 291.24L285.49 291.28ZM295.24 285.65L289.73 288.83C289.5 288.96 289.48 289.17 289.68 289.29L294.96 292.29C295.084 292.352 295.221 292.384 295.36 292.384C295.499 292.384 295.636 292.352 295.76 292.29L301.27 289.1C301.5 288.97 301.52 288.76 301.27 288.64L295.99 285.64C295.87 285.573 295.736 285.535 295.599 285.53C295.461 285.525 295.325 285.552 295.2 285.61L295.24 285.65ZM273.62 298.13L268.11 301.31C267.88 301.45 267.86 301.65 268.06 301.77L273.34 304.77C273.465 304.831 273.601 304.863 273.74 304.863C273.879 304.863 274.016 304.831 274.14 304.77L279.65 301.59C279.88 301.45 279.9 301.25 279.7 301.12L274.42 298.12C274.294 298.045 274.151 298.002 274.004 297.997C273.857 297.992 273.711 298.024 273.58 298.09L273.62 298.13ZM265.57 302.78L260 305.92C259.76 306.06 259.74 306.26 260 306.38L265.27 309.43C265.394 309.492 265.531 309.524 265.67 309.524C265.809 309.524 265.946 309.492 266.07 309.43L271.58 306.25C271.82 306.11 271.84 305.91 271.63 305.78L266.36 302.78C266.236 302.705 266.095 302.662 265.95 302.655C265.805 302.648 265.661 302.677 265.53 302.74L265.57 302.78ZM286.23 315.2L291.75 312.02C291.98 311.88 292 311.68 291.75 311.56L286.48 308.56C286.356 308.496 286.219 308.463 286.08 308.463C285.941 308.463 285.804 308.496 285.68 308.56L280.17 311.74C279.93 311.88 279.91 312.08 280.12 312.2L285.39 315.25C285.521 315.298 285.662 315.315 285.801 315.3C285.94 315.284 286.073 315.236 286.19 315.16L286.23 315.2ZM278.18 319.85L283.69 316.67C283.92 316.53 283.95 316.33 283.74 316.21L278.47 313.16C278.345 313.096 278.206 313.063 278.065 313.063C277.924 313.063 277.785 313.096 277.66 313.16L272.15 316.34C271.92 316.48 271.9 316.68 272.15 316.8L277.42 319.8C277.533 319.851 277.655 319.879 277.779 319.88C277.903 319.882 278.026 319.858 278.14 319.81L278.18 319.85ZM270.12 324.5L275.64 321.32C275.87 321.18 275.89 320.98 275.64 320.86L270.37 317.81C270.246 317.746 270.109 317.713 269.97 317.713C269.831 317.713 269.694 317.746 269.57 317.81L264.06 321C263.82 321.14 263.8 321.34 264.01 321.46L269.28 324.51C269.408 324.567 269.547 324.591 269.686 324.583C269.825 324.574 269.96 324.532 270.08 324.46L270.12 324.5ZM262 329.11L267.51 325.93C267.75 325.79 267.77 325.59 267.51 325.47L262.24 322.42C262.116 322.356 261.979 322.323 261.84 322.323C261.701 322.323 261.564 322.356 261.44 322.42L256 325.63C255.77 325.77 255.75 325.97 256 326.09L261.27 329.14C261.387 329.188 261.512 329.211 261.638 329.205C261.764 329.2 261.888 329.168 262 329.11ZM303.22 296.61L308.73 293.43C308.96 293.3 308.99 293.09 308.78 292.97L303.51 289.97C303.386 289.908 303.249 289.876 303.11 289.876C302.971 289.876 302.834 289.908 302.71 289.97L297.19 293.16C296.96 293.29 296.94 293.5 297.19 293.62L302.46 296.62C302.583 296.681 302.719 296.712 302.856 296.71C302.994 296.708 303.128 296.674 303.25 296.61H303.22ZM294.22 310.51L306.51 303.41C306.75 303.28 306.77 303.07 306.51 302.95L293.71 295.56C293.584 295.498 293.445 295.466 293.305 295.466C293.165 295.466 293.026 295.498 292.9 295.56L286.55 299.23C286.31 299.37 286.29 299.58 286.5 299.7L293.28 303.61C293.49 303.73 293.46 303.94 293.23 304.07L288.22 307C287.99 307.14 287.97 307.34 288.22 307.46L293.49 310.51C293.609 310.566 293.739 310.594 293.87 310.594C294.001 310.594 294.131 310.566 294.25 310.51H294.22ZM257.44 307.39L252 310.57C251.77 310.71 251.75 310.91 252 311.03L257.27 314.08C257.394 314.142 257.531 314.174 257.67 314.174C257.809 314.174 257.946 314.142 258.07 314.08L263.58 310.9C263.81 310.76 263.83 310.56 263.63 310.44L258.35 307.39C258.217 307.312 258.065 307.271 257.91 307.271C257.755 307.271 257.603 307.312 257.47 307.39H257.44ZM249.42 312L243.91 315.18C243.67 315.32 243.65 315.52 243.91 315.64L249.18 318.69C249.304 318.754 249.441 318.787 249.58 318.787C249.719 318.787 249.856 318.754 249.98 318.69L255.49 315.51C255.73 315.37 255.75 315.17 255.54 315.05L250.22 312C250.096 311.936 249.959 311.903 249.82 311.903C249.681 311.903 249.544 311.936 249.42 312ZM204.85 361.65C204.974 361.714 205.111 361.747 205.25 361.747C205.389 361.747 205.526 361.714 205.65 361.65L211.16 358.47C211.39 358.34 211.41 358.13 211.21 358.01L205.93 355.01C205.806 354.946 205.669 354.913 205.53 354.913C205.391 354.913 205.254 354.946 205.13 355.01L199.62 358.19C199.39 358.33 199.37 358.54 199.57 358.66L204.85 361.65ZM185 349.24L179.49 352.42C179.26 352.56 179.23 352.77 179.44 352.89L184.72 355.89C184.844 355.954 184.981 355.987 185.12 355.987C185.259 355.987 185.396 355.954 185.52 355.89L191.03 352.71C191.26 352.58 191.28 352.37 191.03 352.25L185.76 349.25C185.642 349.191 185.513 349.159 185.381 349.158C185.25 349.156 185.119 349.184 185 349.24ZM195.21 358.57C195.336 358.631 195.475 358.663 195.615 358.663C195.755 358.663 195.894 358.631 196.02 358.57L201.53 355.39C201.76 355.25 201.78 355.04 201.53 354.92L196.26 351.92C196.136 351.856 195.999 351.823 195.86 351.823C195.721 351.823 195.584 351.856 195.46 351.92L190 355.06C189.77 355.19 189.74 355.4 189.95 355.52L195.21 358.57ZM217.44 363.57L222.95 360.39C223.18 360.26 223.2 360.05 222.95 359.93L217.67 356.93C217.546 356.868 217.409 356.836 217.27 356.836C217.131 356.836 216.994 356.868 216.87 356.93L211.36 360.12C211.13 360.25 211.11 360.46 211.36 360.58L216.63 363.58C216.754 363.639 216.89 363.668 217.027 363.665C217.165 363.661 217.299 363.626 217.42 363.56L217.44 363.57ZM208.58 368.25C208.704 368.314 208.841 368.347 208.98 368.347C209.119 368.347 209.256 368.314 209.38 368.25L214.89 365.07C215.13 364.94 215.15 364.73 214.89 364.61L209.62 361.61C209.496 361.548 209.359 361.516 209.22 361.516C209.081 361.516 208.944 361.548 208.82 361.61L203.31 364.8C203.07 364.93 203.05 365.14 203.26 365.26L208.58 368.25ZM193 344.59L187.48 347.77C187.25 347.91 187.23 348.12 187.48 348.24L192.75 351.24C192.874 351.304 193.011 351.337 193.15 351.337C193.289 351.337 193.426 351.304 193.55 351.24L199.06 348.06C199.3 347.93 199.32 347.72 199.11 347.6L193.84 344.55C193.707 344.488 193.561 344.459 193.415 344.466C193.269 344.473 193.126 344.516 193 344.59ZM233.27 321.34L227.76 324.52C227.52 324.66 227.5 324.86 227.71 324.98L232.98 327.98C233.104 328.044 233.241 328.077 233.38 328.077C233.519 328.077 233.656 328.044 233.78 327.98L239.3 324.8C239.53 324.66 239.55 324.46 239.3 324.34L234.03 321.29C233.913 321.246 233.789 321.228 233.665 321.237C233.54 321.246 233.419 321.281 233.31 321.34H233.27ZM201.05 339.94L195.54 343.12C195.31 343.26 195.28 343.47 195.49 343.59L200.76 346.59C200.885 346.654 201.024 346.688 201.165 346.688C201.306 346.688 201.445 346.654 201.57 346.59L207.08 343.41C207.31 343.27 207.33 343.07 207.08 342.95L201.81 339.95C201.697 339.899 201.575 339.872 201.451 339.87C201.327 339.868 201.204 339.892 201.09 339.94H201.05ZM241.32 316.69L235.81 319.87C235.58 320.01 235.56 320.21 235.81 320.33L241.08 323.38C241.204 323.444 241.341 323.477 241.48 323.477C241.619 323.477 241.756 323.444 241.88 323.38L247.39 320.2C247.62 320.06 247.64 319.86 247.44 319.74L242.16 316.74C242.04 316.668 241.905 316.626 241.766 316.617C241.627 316.609 241.488 316.634 241.36 316.69H241.32ZM225.25 326L219.74 329.18C219.51 329.32 219.49 329.52 219.74 329.64L225.01 332.69C225.134 332.754 225.271 332.787 225.41 332.787C225.549 332.787 225.686 332.754 225.81 332.69L231.32 329.51C231.55 329.37 231.58 329.17 231.37 329.05L226.06 326C225.935 325.936 225.796 325.903 225.655 325.903C225.514 325.903 225.375 325.936 225.25 326ZM217.2 330.65L211.69 333.83C211.45 333.97 211.43 334.17 211.64 334.29L216.91 337.34C217.034 337.404 217.171 337.437 217.31 337.437C217.449 337.437 217.586 337.404 217.71 337.34L223.23 334.16C223.46 334.02 223.48 333.82 223.23 333.7L218 330.61C217.873 330.553 217.735 330.526 217.597 330.531C217.458 330.536 217.322 330.574 217.2 330.64V330.65ZM209.2 335.3L203.68 338.48C203.45 338.62 203.43 338.83 203.68 338.95L208.95 341.95C209.074 342.014 209.211 342.047 209.35 342.047C209.489 342.047 209.626 342.014 209.75 341.95L215.26 338.77C215.5 338.63 215.52 338.43 215.31 338.31L210 335.26C209.867 335.195 209.72 335.163 209.571 335.168C209.423 335.174 209.278 335.215 209.15 335.29L209.2 335.3ZM245.97 338.42L251.48 335.24C251.72 335.1 251.74 334.9 251.48 334.78L246.21 331.78C246.086 331.718 245.949 331.686 245.81 331.686C245.671 331.686 245.534 331.718 245.41 331.78L239.89 334.96C239.66 335.1 239.64 335.3 239.89 335.42L245.16 338.47C245.283 338.518 245.415 338.538 245.547 338.528C245.679 338.517 245.806 338.477 245.92 338.41L245.97 338.42ZM321.11 270.69L315.6 273.87C315.37 274 315.35 274.21 315.55 274.33L320.83 277.33C320.954 277.392 321.091 277.424 321.23 277.424C321.369 277.424 321.506 277.392 321.63 277.33L327.14 274.14C327.37 274.01 327.39 273.8 327.19 273.68L321.91 270.68C321.78 270.607 321.634 270.569 321.485 270.569C321.336 270.569 321.19 270.607 321.06 270.68L321.11 270.69ZM311.36 276.31L305.85 279.5C305.62 279.63 305.6 279.84 305.8 279.96L311.08 282.96C311.204 283.022 311.341 283.054 311.48 283.054C311.619 283.054 311.756 283.022 311.88 282.96L317.39 279.77C317.62 279.64 317.64 279.43 317.44 279.31L312.16 276.31C312.03 276.239 311.885 276.2 311.736 276.198C311.588 276.197 311.442 276.232 311.31 276.3L311.36 276.31ZM329.12 266L323.61 269.18C323.37 269.31 323.35 269.52 323.56 269.64L328.83 272.64C328.954 272.702 329.091 272.734 329.23 272.734C329.369 272.734 329.506 272.702 329.63 272.64L335.14 269.45C335.38 269.32 335.4 269.11 335.19 268.99L329.92 265.99C329.796 265.928 329.658 265.896 329.519 265.898C329.38 265.899 329.243 265.935 329.12 266ZM284.6 307.38L290.11 304.2C290.34 304.07 290.36 303.86 290.16 303.74L284.88 300.74C284.756 300.678 284.619 300.646 284.48 300.646C284.341 300.646 284.204 300.678 284.08 300.74L278.57 303.93C278.34 304.06 278.32 304.27 278.52 304.39L283.8 307.39C283.924 307.453 284.062 307.484 284.201 307.482C284.34 307.481 284.477 307.446 284.6 307.38ZM337.97 261.38C337.846 261.318 337.709 261.286 337.57 261.286C337.431 261.286 337.294 261.318 337.17 261.38L331.66 264.57C331.43 264.7 331.41 264.91 331.61 265.03L336.89 268.03C337.014 268.092 337.151 268.124 337.29 268.124C337.429 268.124 337.566 268.092 337.69 268.03L343.2 264.84C343.43 264.71 343.45 264.5 343.25 264.38L337.97 261.38ZM253.97 333.79L259.48 330.61C259.71 330.47 259.73 330.27 259.48 330.15L254.21 327.1C254.086 327.036 253.949 327.003 253.81 327.003C253.671 327.003 253.534 327.036 253.41 327.1L248 330.28C247.77 330.42 247.74 330.62 248 330.74L253.27 333.79C253.387 333.837 253.512 333.859 253.638 333.853C253.764 333.848 253.887 333.816 254 333.76L253.97 333.79ZM352.74 276.79L358.25 273.61C358.49 273.48 358.51 273.27 358.3 273.15L353 270C352.876 269.938 352.739 269.906 352.6 269.906C352.461 269.906 352.324 269.938 352.2 270L346.69 273.18C346.45 273.32 346.43 273.53 346.64 273.65L351.91 276.65C352.032 276.734 352.173 276.785 352.32 276.799C352.467 276.813 352.615 276.789 352.75 276.73L352.74 276.79ZM337.15 277.09L342.67 273.91C342.9 273.78 342.92 273.57 342.67 273.45L337.4 270.45C337.276 270.388 337.139 270.356 337 270.356C336.861 270.356 336.724 270.388 336.6 270.45L331.09 273.64C330.85 273.77 330.83 273.98 331.04 274.1L336.31 277.1C336.448 277.158 336.599 277.179 336.748 277.162C336.897 277.144 337.039 277.089 337.16 277L337.15 277.09ZM345.49 265.76C345.366 265.698 345.229 265.666 345.09 265.666C344.951 265.666 344.814 265.698 344.69 265.76L339.18 268.95C338.95 269.08 338.93 269.29 339.18 269.41L344.45 272.41C344.574 272.474 344.711 272.507 344.85 272.507C344.989 272.507 345.126 272.474 345.25 272.41L350.76 269.23C350.99 269.1 351.02 268.89 350.76 268.77L345.49 265.76ZM347.19 264.76L359.99 272.15C360.115 272.214 360.254 272.248 360.395 272.248C360.536 272.248 360.675 272.214 360.8 272.15L366.31 268.97C366.54 268.84 366.56 268.63 366.31 268.51L353.51 261.12C353.386 261.058 353.249 261.026 353.11 261.026C352.971 261.026 352.834 261.058 352.71 261.12L347.2 264.3C347 264.39 347 264.6 347.2 264.72L347.19 264.76ZM328.59 275L323.08 278.19C322.85 278.32 322.83 278.53 323.08 278.65L328.35 281.65C328.474 281.714 328.611 281.747 328.75 281.747C328.889 281.747 329.026 281.714 329.15 281.65L334.66 278.47C334.89 278.34 334.92 278.13 334.71 278.01L329.44 275.01C329.31 274.94 329.164 274.903 329.016 274.901C328.868 274.899 328.722 274.933 328.59 275ZM268 310L262.49 313.19C262.26 313.32 262.24 313.53 262.49 313.65L267.77 316.65C267.894 316.714 268.031 316.747 268.17 316.747C268.309 316.747 268.446 316.714 268.57 316.65L274 313.5C274.23 313.37 274.25 313.16 274.05 313.04L268.77 310.04C268.653 309.977 268.523 309.94 268.39 309.933C268.256 309.927 268.123 309.949 268 310ZM343.93 281.39C344.054 281.454 344.191 281.487 344.33 281.487C344.469 281.487 344.606 281.454 344.73 281.39L350.24 278.21C350.47 278.08 350.49 277.87 350.24 277.75L345 274.69C344.876 274.628 344.739 274.596 344.6 274.596C344.461 274.596 344.324 274.628 344.2 274.69L338.69 277.87C338.46 278.01 338.44 278.22 338.64 278.34L343.93 281.39ZM276.06 305.39L270.55 308.58C270.31 308.71 270.29 308.92 270.55 309.04L275.82 312.04C275.944 312.104 276.081 312.137 276.22 312.137C276.359 312.137 276.496 312.104 276.62 312.04L282.13 308.86C282.37 308.73 282.39 308.52 282.18 308.4L276.91 305.4C276.775 305.315 276.619 305.267 276.459 305.262C276.299 305.256 276.141 305.294 276 305.37L276.06 305.39ZM212.9 357C213.024 357.064 213.161 357.097 213.3 357.097C213.439 357.097 213.576 357.064 213.7 357L219.21 353.82C219.45 353.69 219.47 353.48 219.21 353.36L214 350.32C213.876 350.258 213.739 350.226 213.6 350.226C213.461 350.226 213.324 350.258 213.2 350.32L207.69 353.5C207.45 353.64 207.43 353.85 207.64 353.97L212.9 357ZM203.54 347.19L198 350.41C197.77 350.54 197.75 350.75 198 350.87L203.27 353.87C203.394 353.934 203.531 353.967 203.67 353.967C203.809 353.967 203.946 353.934 204.07 353.87L209.58 350.69C209.82 350.55 209.84 350.34 209.63 350.22L204.36 347.22C204.233 347.154 204.092 347.121 203.949 347.122C203.806 347.124 203.665 347.161 203.54 347.23V347.19ZM221.76 352.32L227.27 349.14C227.5 349.01 227.52 348.8 227.27 348.68L222 345.67C221.876 345.608 221.739 345.576 221.6 345.576C221.461 345.576 221.324 345.608 221.2 345.67L215.69 348.85C215.46 348.99 215.44 349.2 215.69 349.32L220.97 352.32C221.089 352.389 221.223 352.428 221.36 352.435C221.498 352.442 221.635 352.416 221.76 352.36V352.32ZM229.81 347.67L235.32 344.49C235.56 344.35 235.58 344.15 235.37 344.03L230.1 341C229.976 340.938 229.839 340.906 229.7 340.906C229.561 340.906 229.424 340.938 229.3 341L223.79 344.18C223.55 344.32 223.53 344.53 223.79 344.65L229.06 347.65C229.173 347.716 229.298 347.755 229.428 347.765C229.558 347.776 229.688 347.757 229.81 347.71V347.67ZM237.87 343.02L243.38 339.84C243.61 339.7 243.63 339.5 243.38 339.38L238.11 336.33C237.986 336.268 237.849 336.236 237.71 336.236C237.571 336.236 237.434 336.268 237.31 336.33L231.8 339.51C231.57 339.65 231.54 339.86 231.75 339.97L237.03 342.97C237.151 343.055 237.291 343.108 237.438 343.124C237.585 343.14 237.734 343.118 237.87 343.06V343.02ZM211.59 342.54L206.08 345.72C205.85 345.85 205.82 346.06 206.03 346.18L211.3 349.18C211.426 349.242 211.565 349.274 211.705 349.274C211.845 349.274 211.984 349.242 212.11 349.18L217.62 346C217.85 345.86 217.87 345.65 217.62 345.53L212.35 342.53C212.228 342.48 212.096 342.459 211.964 342.467C211.833 342.476 211.705 342.515 211.59 342.58V342.54ZM219.65 337.89L214.13 341.07C213.9 341.2 213.88 341.41 214.13 341.53L219.4 344.53C219.524 344.592 219.661 344.624 219.8 344.624C219.939 344.624 220.076 344.592 220.2 344.53L225.71 341.34C225.94 341.21 225.97 341 225.76 340.88L220.49 337.88C220.357 337.817 220.21 337.788 220.064 337.797C219.917 337.806 219.774 337.851 219.65 337.93V337.89ZM251.86 319.29L246.35 322.47C246.12 322.6 246.1 322.81 246.35 322.93L251.62 325.93C251.744 325.992 251.881 326.024 252.02 326.024C252.159 326.024 252.296 325.992 252.42 325.93L257.93 322.74C258.16 322.61 258.18 322.4 257.98 322.28L252.7 319.28C252.567 319.217 252.421 319.188 252.274 319.197C252.127 319.206 251.984 319.251 251.86 319.33V319.29ZM243.81 324L238.3 327.18C238.06 327.31 238.04 327.52 238.25 327.64L243.52 330.64C243.644 330.702 243.781 330.734 243.92 330.734C244.059 330.734 244.196 330.702 244.32 330.64L249.83 327.45C250.07 327.32 250.09 327.11 249.83 326.99L244.56 323.99C244.442 323.936 244.314 323.908 244.184 323.91C244.054 323.912 243.926 323.943 243.81 324ZM259.92 314.69L254.41 317.88C254.17 318.01 254.15 318.22 254.41 318.34L259.68 321.34C259.804 321.402 259.941 321.434 260.08 321.434C260.219 321.434 260.356 321.402 260.48 321.34L265.99 318.15C266.23 318.02 266.25 317.81 266.04 317.69L260.77 314.69C260.641 314.617 260.496 314.577 260.348 314.573C260.199 314.57 260.052 314.603 259.92 314.67V314.69ZM227.7 333.28L222.19 336.46C221.95 336.59 221.93 336.8 222.14 336.92L227.41 339.92C227.534 339.982 227.671 340.014 227.81 340.014C227.949 340.014 228.086 339.982 228.21 339.92L233.73 336.73C233.96 336.6 233.98 336.39 233.73 336.27L228.46 333.27C228.341 333.214 228.211 333.186 228.079 333.188C227.947 333.189 227.818 333.221 227.7 333.28ZM235.75 328.63L230.24 331.81C230.01 331.94 229.99 332.15 230.24 332.27L235.51 335.27C235.634 335.332 235.771 335.364 235.91 335.364C236.049 335.364 236.186 335.332 236.31 335.27L241.82 332.08C242.05 331.95 242.08 331.74 241.87 331.62L236.59 328.62C236.461 328.551 236.316 328.515 236.169 328.517C236.022 328.519 235.878 328.558 235.75 328.63ZM225.47 358.91L230.98 355.73C231.22 355.6 231.24 355.39 231.03 355.27L225.76 352.27C225.636 352.208 225.499 352.176 225.36 352.176C225.221 352.176 225.084 352.208 224.96 352.27L219.45 355.45C219.21 355.59 219.19 355.8 219.45 355.92L224.72 358.92C224.838 358.974 224.966 359.002 225.096 359C225.226 358.998 225.354 358.968 225.47 358.91ZM183 356.91L177.73 353.91C177.606 353.846 177.469 353.813 177.33 353.813C177.191 353.813 177.054 353.846 176.93 353.91L171.42 357.09C171.18 357.23 171.16 357.44 171.42 357.56L176.69 360.56C176.814 360.624 176.951 360.657 177.09 360.657C177.229 360.657 177.366 360.624 177.49 360.56L183 357.38C183.19 357.24 183.21 357 183 356.91ZM193.5 359.54L188.23 356.54C188.106 356.476 187.969 356.443 187.83 356.443C187.691 356.443 187.554 356.476 187.43 356.54L179 361.42C178.76 361.56 178.74 361.77 179 361.89L184.27 364.89C184.394 364.954 184.531 364.987 184.67 364.987C184.809 364.987 184.946 364.954 185.07 364.89L193.55 360C193.69 359.87 193.71 359.66 193.5 359.54ZM175.13 350.9L169.86 347.9C169.736 347.836 169.599 347.803 169.46 347.803C169.321 347.803 169.184 347.836 169.06 347.9L162.27 351.82C162.04 351.95 162.02 352.16 162.27 352.28L167.54 355.28C167.664 355.342 167.801 355.374 167.94 355.374C168.079 355.374 168.216 355.342 168.34 355.28L175.12 351.36C175.32 351.22 175.34 351 175.13 350.9ZM180.33 347.9C180.454 347.964 180.591 347.997 180.73 347.997C180.869 347.997 181.006 347.964 181.13 347.9L186.64 344.72C186.88 344.58 186.9 344.37 186.69 344.25L181.42 341.25C181.296 341.186 181.159 341.153 181.02 341.153C180.881 341.153 180.744 341.186 180.62 341.25L175.11 344.43C174.87 344.56 174.85 344.77 175.06 344.89L180.33 347.9ZM203.15 362.68L197.88 359.68C197.756 359.618 197.619 359.586 197.48 359.586C197.341 359.586 197.204 359.618 197.08 359.68L186.48 365.8C186.25 365.94 186.22 366.14 186.48 366.26L191.75 369.26C191.875 369.324 192.014 369.358 192.155 369.358C192.296 369.358 192.435 369.324 192.56 369.26L203.15 363.14C203.34 363 203.36 362.79 203.15 362.67V362.68ZM206.87 369.23L201.59 366.23C201.466 366.168 201.329 366.136 201.19 366.136C201.051 366.136 200.914 366.168 200.79 366.23L194 370.12C193.77 370.26 193.75 370.46 194 370.58L199.28 373.63C199.405 373.691 199.541 373.723 199.68 373.723C199.819 373.723 199.956 373.691 200.08 373.63L206.86 369.71C207.05 369.55 207.08 369.34 206.87 369.22V369.23ZM240.22 313.33C240.344 313.394 240.481 313.427 240.62 313.427C240.759 313.427 240.896 313.394 241.02 313.33L246.53 310.15C246.76 310.01 246.78 309.81 246.58 309.69L241.3 306.69C241.176 306.629 241.039 306.597 240.9 306.597C240.761 306.597 240.625 306.629 240.5 306.69L235 309.81C234.77 309.95 234.75 310.15 234.95 310.27L240.22 313.33ZM224.11 322.63C224.234 322.694 224.371 322.727 224.51 322.727C224.649 322.727 224.786 322.694 224.91 322.63L230.42 319.45C230.65 319.32 230.68 319.11 230.47 318.99L225.19 315.94C225.066 315.879 224.929 315.847 224.79 315.847C224.651 315.847 224.515 315.879 224.39 315.94L218.88 319.12C218.65 319.26 218.63 319.47 218.88 319.59L224.11 322.63ZM188.38 343.25C188.506 343.312 188.645 343.344 188.785 343.344C188.925 343.344 189.064 343.312 189.19 343.25L194.7 340C194.93 339.86 194.95 339.65 194.7 339.53L189.43 336.53C189.306 336.466 189.169 336.433 189.03 336.433C188.891 336.433 188.754 336.466 188.63 336.53L183.12 339.71C182.89 339.84 182.86 340.05 183.12 340.17L188.38 343.25ZM232.16 318C232.284 318.064 232.421 318.097 232.56 318.097C232.699 318.097 232.836 318.064 232.96 318L238.47 314.82C238.71 314.69 238.73 314.48 238.52 314.36L233.25 311.31C233.126 311.248 232.989 311.216 232.85 311.216C232.711 311.216 232.574 311.248 232.45 311.31L226.94 314.49C226.7 314.63 226.68 314.84 226.89 314.96L232.16 318ZM216.05 327.3C216.174 327.364 216.311 327.397 216.45 327.397C216.589 327.397 216.726 327.364 216.85 327.3L222.36 324.12C222.6 323.99 222.62 323.78 222.36 323.66L217.09 320.61C216.966 320.548 216.829 320.516 216.69 320.516C216.551 320.516 216.414 320.548 216.29 320.61L210.78 323.79C210.54 323.93 210.52 324.14 210.73 324.26L216.05 327.3ZM210.82 369.58C210.696 369.518 210.559 369.486 210.42 369.486C210.281 369.486 210.144 369.518 210.02 369.58L201.54 374.48C201.31 374.61 201.29 374.82 201.54 374.94L206.81 377.94C206.934 378.004 207.071 378.037 207.21 378.037C207.349 378.037 207.486 378.004 207.61 377.94L216.09 373.04C216.32 372.91 216.34 372.7 216.09 372.58L210.82 369.58ZM204.49 333.97C204.614 334.032 204.751 334.064 204.89 334.064C205.029 334.064 205.166 334.032 205.29 333.97L210.81 330.78C211.04 330.65 211.06 330.44 210.81 330.32L205.54 327.32C205.416 327.256 205.279 327.223 205.14 327.223C205.001 327.223 204.864 327.256 204.74 327.32L199.23 330.5C198.99 330.63 198.97 330.84 199.18 330.96L204.49 333.97ZM196.44 338.62C196.564 338.682 196.701 338.714 196.84 338.714C196.979 338.714 197.116 338.682 197.24 338.62L202.75 335.43C202.99 335.3 203.01 335.09 202.8 334.97L197.53 331.97C197.406 331.906 197.269 331.873 197.13 331.873C196.991 331.873 196.854 331.906 196.73 331.97L191.21 335.15C190.98 335.28 190.96 335.49 191.21 335.61L196.44 338.62ZM360.05 283.42C359.926 283.356 359.789 283.323 359.65 283.323C359.511 283.323 359.374 283.356 359.25 283.42L345.68 291.25C345.45 291.39 345.42 291.59 345.63 291.71L350.91 294.76C351.034 294.824 351.171 294.857 351.31 294.857C351.449 294.857 351.586 294.824 351.71 294.76L365.27 286.93C365.51 286.79 365.53 286.59 365.32 286.47L360.05 283.42ZM342.24 293.7C342.116 293.636 341.979 293.603 341.84 293.603C341.701 293.603 341.564 293.636 341.44 293.7L335.93 296.88C335.7 297.02 335.67 297.22 335.88 297.34L341.15 300.39C341.275 300.454 341.414 300.488 341.555 300.488C341.696 300.488 341.835 300.454 341.96 300.39L347.47 297.21C347.7 297.07 347.72 296.87 347.47 296.75L342.24 293.7ZM233.53 354.26L239.04 351.08C239.27 350.95 239.29 350.74 239.09 350.62L233.81 347.62C233.686 347.558 233.549 347.526 233.41 347.526C233.271 347.526 233.134 347.558 233.01 347.62L227.5 350.8C227.27 350.94 227.25 351.15 227.5 351.27L232.77 354.27C232.889 354.326 233.02 354.354 233.151 354.352C233.283 354.351 233.412 354.319 233.53 354.26ZM326.13 303C326.006 302.938 325.869 302.906 325.73 302.906C325.591 302.906 325.454 302.938 325.33 303L319.82 306.18C319.59 306.32 319.56 306.52 319.77 306.64L325.05 309.69C325.174 309.754 325.311 309.787 325.45 309.787C325.589 309.787 325.726 309.754 325.85 309.69L331.36 306.51C331.59 306.37 331.61 306.17 331.36 306.05L326.13 303ZM368.13 278.77C368.006 278.706 367.869 278.673 367.73 278.673C367.591 278.673 367.454 278.706 367.33 278.77L361.79 282C361.56 282.14 361.53 282.34 361.74 282.46L367.01 285.46C367.134 285.522 367.271 285.554 367.41 285.554C367.549 285.554 367.686 285.522 367.81 285.46L373.33 282.28C373.56 282.14 373.58 281.94 373.33 281.82L368.13 278.77ZM381.46 277.17L368.65 269.77C368.526 269.706 368.389 269.673 368.25 269.673C368.111 269.673 367.974 269.706 367.85 269.77L362.31 273C362.08 273.14 362.06 273.34 362.26 273.46L375.07 280.86C375.194 280.922 375.331 280.954 375.47 280.954C375.609 280.954 375.746 280.922 375.87 280.86L381.38 277.68C381.61 277.46 381.64 277.26 381.43 277.14L381.46 277.17ZM296 320.35C295.876 320.286 295.739 320.253 295.6 320.253C295.461 320.253 295.324 320.286 295.2 320.35L288.42 324.26C288.19 324.4 288.16 324.61 288.37 324.73L293.64 327.73C293.765 327.794 293.904 327.828 294.045 327.828C294.186 327.828 294.325 327.794 294.45 327.73L301.23 323.82C301.46 323.68 301.48 323.47 301.28 323.35L296 320.35ZM316.35 308.6C316.226 308.536 316.089 308.503 315.95 308.503C315.811 308.503 315.674 308.536 315.55 308.6L307.07 313.49C306.84 313.63 306.82 313.84 307.02 313.96L312.3 316.96C312.424 317.024 312.561 317.057 312.7 317.057C312.839 317.057 312.976 317.024 313.1 316.96L321.58 312.07C321.81 311.93 321.83 311.73 321.58 311.61L316.35 308.6ZM277.35 331.12C277.226 331.056 277.089 331.023 276.95 331.023C276.811 331.023 276.674 331.056 276.55 331.12L231.19 357.31C230.96 357.44 230.93 357.65 231.14 357.77L236.41 360.77C236.534 360.834 236.671 360.867 236.81 360.867C236.949 360.867 237.086 360.834 237.21 360.77L282.58 334.59C282.81 334.45 282.83 334.24 282.58 334.12L277.35 331.12ZM229.45 358.78C229.326 358.718 229.189 358.686 229.05 358.686C228.911 358.686 228.774 358.718 228.65 358.78L221.86 362.7C221.63 362.84 221.61 363.04 221.86 363.16L227.13 366.21C227.254 366.272 227.391 366.304 227.53 366.304C227.669 366.304 227.806 366.272 227.93 366.21L234.71 362.29C234.94 362.16 234.97 361.95 234.76 361.83L229.45 358.78ZM286.68 325.78C286.556 325.716 286.419 325.683 286.28 325.683C286.141 325.683 286.004 325.716 285.88 325.78L279.09 329.7C278.86 329.83 278.84 330.04 279.09 330.16L284.36 333.16C284.484 333.224 284.621 333.257 284.76 333.257C284.899 333.257 285.036 333.224 285.16 333.16L291.94 329.24C292.18 329.11 292.2 328.9 291.99 328.78L286.68 325.78ZM220.12 364.2C219.996 364.136 219.859 364.103 219.72 364.103C219.581 364.103 219.444 364.136 219.32 364.2L212.54 368.11C212.3 368.25 212.28 368.46 212.54 368.58L217.81 371.58C217.934 371.644 218.071 371.677 218.21 371.677C218.349 371.677 218.486 371.644 218.61 371.58L225.39 367.67C225.63 367.53 225.65 367.33 225.39 367.21L220.12 364.2ZM305.36 315C305.236 314.938 305.099 314.906 304.96 314.906C304.821 314.906 304.684 314.938 304.56 315L297.78 318.92C297.54 319.05 297.52 319.26 297.78 319.38L303.05 322.43C303.174 322.492 303.311 322.524 303.45 322.524C303.589 322.524 303.726 322.492 303.85 322.43L310.63 318.51C310.87 318.38 310.89 318.17 310.68 318.05L305.36 315ZM334.19 298.35C334.066 298.286 333.929 298.253 333.79 298.253C333.651 298.253 333.514 298.286 333.39 298.35L327.87 301.53C327.64 301.67 327.62 301.87 327.87 301.99L333.1 305C333.224 305.064 333.361 305.097 333.5 305.097C333.639 305.097 333.776 305.064 333.9 305L339.41 301.82C339.65 301.68 339.67 301.48 339.41 301.36L334.19 298.35ZM352.19 285.76L357.7 282.58C357.93 282.44 357.96 282.24 357.75 282.12L352.47 279.12C352.346 279.059 352.209 279.027 352.07 279.027C351.931 279.027 351.795 279.059 351.67 279.12L346.16 282.3C345.93 282.44 345.91 282.64 346.16 282.77L351.43 285.77C351.557 285.828 351.696 285.855 351.835 285.848C351.974 285.841 352.11 285.8 352.23 285.73L352.19 285.76ZM319.32 287.34L324.83 284.16C325.06 284.03 325.09 283.82 324.88 283.7L319.61 280.7C319.484 280.638 319.345 280.606 319.205 280.606C319.065 280.606 318.926 280.638 318.8 280.7L313.29 283.89C313.06 284.02 313.04 284.23 313.29 284.35L318.56 287.35C318.687 287.408 318.826 287.435 318.965 287.428C319.104 287.421 319.24 287.38 319.36 287.31L319.32 287.34ZM298 317.06L314.1 307.76C314.34 307.62 314.36 307.42 314.15 307.3L308.88 304.25C308.756 304.188 308.619 304.156 308.48 304.156C308.341 304.156 308.204 304.188 308.08 304.25L291.97 313.55C291.74 313.69 291.71 313.89 291.92 314.01L297.19 317.01C297.311 317.082 297.448 317.124 297.589 317.133C297.73 317.141 297.871 317.117 298 317.06ZM343.4 290.41C343.524 290.474 343.661 290.507 343.8 290.507C343.939 290.507 344.076 290.474 344.2 290.41L349.71 287.23C349.95 287.09 349.97 286.89 349.76 286.77L344.49 283.72C344.366 283.658 344.229 283.626 344.09 283.626C343.951 283.626 343.814 283.658 343.69 283.72L338.18 286.9C337.94 287.04 337.92 287.25 338.18 287.37L343.4 290.41ZM336.64 286L342.15 282.82C342.39 282.69 342.41 282.48 342.2 282.36L336.93 279.36C336.806 279.298 336.669 279.266 336.53 279.266C336.391 279.266 336.254 279.298 336.13 279.36L330.62 282.54C330.38 282.68 330.36 282.89 330.57 283.01L335.84 286.01C335.964 286.073 336.102 286.104 336.241 286.102C336.38 286.101 336.517 286.066 336.64 286ZM289.91 321.68L295.42 318.5C295.66 318.36 295.68 318.16 295.47 318.04L290.2 315C290.076 314.936 289.939 314.903 289.8 314.903C289.661 314.903 289.524 314.936 289.4 315L283.88 318.18C283.65 318.32 283.63 318.52 283.88 318.64L289.15 321.69C289.267 321.751 289.396 321.784 289.528 321.787C289.659 321.791 289.79 321.764 289.91 321.71V321.68ZM325.57 300.68C325.694 300.744 325.831 300.777 325.97 300.777C326.109 300.777 326.246 300.744 326.37 300.68L331.88 297.5C332.11 297.36 332.13 297.16 331.93 297.04L326.65 294.04C326.525 293.979 326.389 293.947 326.25 293.947C326.111 293.947 325.975 293.979 325.85 294.04L320.34 297.22C320.11 297.36 320.09 297.56 320.34 297.69L325.57 300.68ZM249.64 345L255.15 341.82C255.38 341.69 255.4 341.48 255.15 341.36L249.87 338.31C249.745 338.249 249.609 338.217 249.47 338.217C249.331 338.217 249.195 338.249 249.07 338.31L243.56 341.49C243.33 341.63 243.31 341.84 243.51 341.96L248.79 344.96C248.916 345.039 249.061 345.084 249.21 345.091C249.359 345.098 249.507 345.067 249.64 345ZM257.69 340.35L263.2 337.17C263.44 337.04 263.46 336.83 263.25 336.71L258 333.62C257.876 333.558 257.739 333.526 257.6 333.526C257.461 333.526 257.324 333.558 257.2 333.62L251.69 336.8C251.45 336.94 251.43 337.15 251.69 337.27L256.96 340.27C257.072 340.329 257.195 340.364 257.321 340.37C257.447 340.377 257.573 340.357 257.69 340.31V340.35ZM241.58 349.65L247.09 346.47C247.33 346.34 247.35 346.13 247.09 346.01L241.82 343.01C241.696 342.948 241.559 342.916 241.42 342.916C241.281 342.916 241.144 342.948 241.02 343.01L235.51 346.19C235.27 346.33 235.25 346.54 235.46 346.66L240.73 349.66C240.864 349.725 241.013 349.755 241.162 349.746C241.31 349.737 241.455 349.691 241.58 349.61V349.65ZM273.8 331L279.31 327.82C279.55 327.68 279.57 327.48 279.36 327.36L274.09 324.31C273.966 324.248 273.829 324.216 273.69 324.216C273.551 324.216 273.414 324.248 273.29 324.31L267.78 327.49C267.54 327.63 267.52 327.83 267.78 327.95L273 331C273.124 331.064 273.261 331.097 273.4 331.097C273.539 331.097 273.676 331.064 273.8 331ZM265.75 335.65L271.26 332.47C271.49 332.34 271.51 332.13 271.31 332.01L266 329C265.876 328.938 265.739 328.906 265.6 328.906C265.461 328.906 265.324 328.938 265.2 329L259.69 332.18C259.46 332.32 259.44 332.53 259.64 332.65L264.92 335.65C265.047 335.721 265.189 335.759 265.334 335.76C265.479 335.762 265.622 335.728 265.75 335.66V335.65ZM281.86 326.35L287.37 323.17C287.6 323.03 287.62 322.83 287.37 322.71L282.1 319.66C281.976 319.596 281.839 319.563 281.7 319.563C281.561 319.563 281.424 319.596 281.3 319.66L275.79 322.84C275.56 322.98 275.53 323.18 275.74 323.3L281.02 326.35C281.148 326.423 281.292 326.461 281.439 326.463C281.586 326.465 281.731 326.429 281.86 326.36V326.35ZM325.81 261.66C325.934 261.724 326.071 261.757 326.21 261.757C326.349 261.757 326.486 261.724 326.61 261.66L332.12 258.48C332.36 258.34 332.38 258.14 332.17 258.02L330.77 257.21C330.646 257.148 330.509 257.116 330.37 257.116C330.231 257.116 330.094 257.148 329.97 257.21L324.45 260.4C324.22 260.53 324.2 260.74 324.45 260.86L325.81 261.66ZM285.81 287.01C285.935 287.071 286.071 287.103 286.21 287.103C286.349 287.103 286.485 287.071 286.61 287.01L292.12 283.83C292.35 283.69 292.37 283.48 292.12 283.36L286.85 280.36C286.726 280.296 286.589 280.263 286.45 280.263C286.311 280.263 286.174 280.296 286.05 280.36L280.54 283.54C280.31 283.67 280.29 283.88 280.49 284L285.81 287.01ZM301.92 277.71C302.045 277.771 302.181 277.803 302.32 277.803C302.459 277.803 302.596 277.771 302.72 277.71L308.23 274.53C308.46 274.39 308.48 274.18 308.23 274.06L303 271C302.876 270.936 302.739 270.903 302.6 270.903C302.461 270.903 302.324 270.936 302.2 271L296.69 274.18C296.46 274.31 296.43 274.52 296.64 274.64L301.92 277.71ZM275.97 292.71C276.094 292.772 276.231 292.804 276.37 292.804C276.509 292.804 276.646 292.772 276.77 292.71L282.28 289.52C282.52 289.39 282.54 289.18 282.33 289.06L277 286C276.876 285.936 276.739 285.903 276.6 285.903C276.461 285.903 276.324 285.936 276.2 286L270.69 289.18C270.45 289.31 270.43 289.52 270.64 289.64L275.97 292.71ZM293.86 282.39C293.984 282.452 294.121 282.484 294.26 282.484C294.399 282.484 294.536 282.452 294.66 282.39L300.17 279.21C300.41 279.07 300.43 278.86 300.22 278.74L294.95 275.74C294.826 275.676 294.689 275.643 294.55 275.643C294.411 275.643 294.274 275.676 294.15 275.74L288.64 278.92C288.4 279.05 288.38 279.26 288.59 279.38L293.86 282.39ZM259.86 302.02C259.985 302.079 260.122 302.109 260.26 302.109C260.398 302.109 260.535 302.079 260.66 302.02L266.17 298.84C266.41 298.7 266.43 298.49 266.22 298.37L260.95 295.37C260.826 295.306 260.689 295.273 260.55 295.273C260.411 295.273 260.274 295.306 260.15 295.37L254.64 298.55C254.4 298.68 254.38 298.89 254.59 299.01L259.86 302.02ZM267.92 297.36C268.044 297.422 268.181 297.454 268.32 297.454C268.459 297.454 268.596 297.422 268.72 297.36L274.23 294.18C274.46 294.04 274.48 293.83 274.23 293.71L268.96 290.71C268.836 290.646 268.699 290.613 268.56 290.613C268.421 290.613 268.284 290.646 268.16 290.71L262.65 293.89C262.42 294.02 262.4 294.23 262.6 294.35L267.92 297.36ZM309.7 271C309.824 271.064 309.961 271.097 310.1 271.097C310.239 271.097 310.376 271.064 310.5 271L316.01 267.82C316.25 267.68 316.27 267.48 316.06 267.36L314.66 266.55C314.536 266.488 314.399 266.456 314.26 266.456C314.121 266.456 313.984 266.488 313.86 266.55L308.35 269.74C308.11 269.87 308.09 270.08 308.3 270.2L309.7 271ZM333.87 257C333.994 257.064 334.131 257.097 334.27 257.097C334.409 257.097 334.546 257.064 334.67 257L340.18 253.82C340.41 253.68 340.43 253.48 340.18 253.36L338.78 252.55C338.656 252.488 338.519 252.456 338.38 252.456C338.241 252.456 338.104 252.488 337.98 252.55L332.47 255.74C332.23 255.87 332.21 256.08 332.42 256.2L333.87 257ZM344.94 263.39C345.064 263.452 345.201 263.484 345.34 263.484C345.479 263.484 345.616 263.452 345.74 263.39L351.25 260.2C351.49 260.07 351.51 259.86 351.3 259.74L346.03 256.74C345.906 256.678 345.769 256.646 345.63 256.646C345.491 256.646 345.354 256.678 345.23 256.74L339.72 259.93C339.48 260.06 339.46 260.27 339.67 260.39L344.94 263.39ZM360.28 281.06L365.79 277.88C366.03 277.74 366.05 277.54 365.79 277.42L360.52 274.37C360.396 274.308 360.259 274.276 360.12 274.276C359.981 274.276 359.844 274.308 359.72 274.37L354.21 277.55C353.97 277.69 353.95 277.89 354.16 278.01L359.43 281.06C359.558 281.136 359.704 281.177 359.852 281.181C360.001 281.184 360.148 281.15 360.28 281.08V281.06ZM317.76 266.3C317.884 266.364 318.021 266.397 318.16 266.397C318.299 266.397 318.436 266.364 318.56 266.3L324.07 263.12C324.3 262.98 324.32 262.78 324.07 262.66L322.67 261.85C322.546 261.788 322.409 261.756 322.27 261.756C322.131 261.756 321.994 261.788 321.87 261.85L316.36 265.04C316.13 265.17 316.1 265.38 316.36 265.5L317.76 266.3ZM251.76 306.63C251.885 306.691 252.021 306.723 252.16 306.723C252.299 306.723 252.436 306.691 252.56 306.63L258.07 303.45C258.3 303.31 258.32 303.1 258.12 302.98L252.84 299.98C252.716 299.916 252.579 299.883 252.44 299.883C252.301 299.883 252.164 299.916 252.04 299.98L246.53 303.16C246.3 303.29 246.28 303.5 246.48 303.62L251.76 306.63Z" fill="#455A64"/>
<path d="M275.61 348.19L276.74 348.84L306.76 366.16L360.13 335.35L361.24 334.71L330.1 316.74L275.61 348.19Z" fill="#37474F"/>
<path d="M276.74 348.84L306.76 366.16L360.13 335.35L330.1 318.02L276.74 348.84Z" fill="#263238"/>
<path d="M107.06 213.2L94.83 206.2C94.29 205.88 93.89 205.8 93.68 205.93L92.19 206.79C91.93 206.94 91.94 207.38 92.26 208.06L95.26 214.22L93.04 216.22C92.8042 216.401 92.6189 216.639 92.5021 216.913C92.3852 217.186 92.3407 217.485 92.3729 217.78C92.405 218.075 92.5128 218.358 92.6857 218.599C92.8586 218.841 93.0908 219.034 93.36 219.16L105.59 226.22L107.08 225.35L107.06 213.2Z" fill="#001E3B"/>
<path opacity="0.5" d="M107.06 213.2L94.83 206.2C94.29 205.88 93.89 205.8 93.68 205.93L92.19 206.79C91.93 206.94 91.94 207.38 92.26 208.06L95.26 214.22L93.04 216.22C92.8042 216.401 92.6189 216.639 92.5021 216.913C92.3852 217.186 92.3407 217.485 92.3729 217.78C92.405 218.075 92.5128 218.358 92.6857 218.599C92.8586 218.841 93.0908 219.034 93.36 219.16L105.59 226.22L107.08 225.35L107.06 213.2Z" fill="white"/>
<path d="M93.34 207C92.15 206.31 91.66 206.76 92.26 208L95.26 214.16L93.04 216.16C92.8042 216.341 92.619 216.579 92.5021 216.853C92.3853 217.126 92.3408 217.425 92.3729 217.72C92.4051 218.015 92.5128 218.298 92.6857 218.539C92.8586 218.781 93.0908 218.974 93.36 219.1L105.59 226.16V214.07L93.34 207Z" fill="#001E3B"/>
<path d="M107 252.11C106.81 252.111 106.623 252.075 106.447 252.003C106.272 251.931 106.113 251.825 105.979 251.691C105.845 251.557 105.739 251.398 105.667 251.223C105.595 251.047 105.559 250.859 105.56 250.67V210.05C105.59 209.69 105.754 209.355 106.02 209.11C106.286 208.866 106.634 208.73 106.995 208.73C107.356 208.73 107.704 208.866 107.97 209.11C108.236 209.355 108.4 209.69 108.43 210.05V250.67C108.431 250.859 108.395 251.046 108.324 251.22C108.253 251.395 108.148 251.554 108.015 251.688C107.882 251.821 107.724 251.928 107.55 252C107.375 252.073 107.189 252.11 107 252.11Z" fill="#455A64"/>
<path d="M54.3901 360.27V357.74H55.0001C55.9501 356.034 57.3789 354.643 59.1101 353.74C65.4301 350.09 75.6701 350.09 81.9901 353.74C83.7244 354.639 85.1543 356.031 86.1001 357.74H86.7201V360.19C86.7201 362.62 85.2001 365.06 81.9901 366.91C75.6701 370.56 65.4301 370.56 59.1101 366.91C56.0001 365.08 54.3701 362.67 54.3901 360.27Z" fill="#263238"/>
<path d="M70.56 367.08C79.496 367.08 86.74 362.898 86.74 357.74C86.74 352.582 79.496 348.4 70.56 348.4C61.624 348.4 54.38 352.582 54.38 357.74C54.38 362.898 61.624 367.08 70.56 367.08Z" fill="#455A64"/>
<path d="M74.73 269.77V356.63C74.695 356.996 74.5637 357.346 74.3494 357.645C74.1351 357.943 73.8454 358.18 73.51 358.33C72.5976 358.794 71.5885 359.035 70.565 359.035C69.5415 359.035 68.5325 358.794 67.62 358.33C67.2834 358.181 66.9927 357.945 66.7781 357.646C66.5636 357.347 66.433 356.997 66.4 356.63V269.77H74.73Z" fill="#37474F"/>
<path d="M66.4 280.28V288.45L74.73 293.25V285.1L66.4 280.28Z" fill="#263238"/>
<path d="M96.6 262L112 270.9C111.921 271.025 111.82 271.134 111.7 271.22L84.76 286.77C84.53 286.9 84.35 286.77 84.35 286.52V267.11C84.4241 263.376 85.1869 259.687 86.6 256.23L96.6 262Z" fill="#001E3B"/>
<path opacity="0.4" d="M96.6 262L112 270.9C111.921 271.025 111.82 271.134 111.7 271.22L84.76 286.77C84.53 286.9 84.35 286.77 84.35 286.52V267.11C84.4241 263.376 85.1869 259.687 86.6 256.23L96.6 262Z" fill="black"/>
<path d="M112.12 249.25V271L86.6 256.24L86.69 256.03C89.42 249.19 94 243.4 99 240.52C100.733 239.428 102.723 238.81 104.77 238.73C109.31 238.73 112.12 242.76 112.12 249.25Z" fill="#001E3B"/>
<path opacity="0.3" d="M112.12 249.25V271L86.6 256.24L86.69 256.03C89.42 249.19 94 243.4 99 240.52C100.733 239.428 102.723 238.81 104.77 238.73C109.31 238.73 112.12 242.76 112.12 249.25Z" fill="black"/>
<path d="M139.83 295.22V293.28H139.64V293.56C139.525 293.021 139.358 292.496 139.14 291.99C138.14 289.61 135.97 287.33 132.7 285.44L114.47 274.91C114.043 274.698 113.572 274.587 113.095 274.587C112.618 274.587 112.147 274.698 111.72 274.91L83.8401 291C83.4964 290.715 83.1994 290.377 82.9601 290V292C82.9773 292.17 83.0378 292.333 83.1358 292.473C83.2338 292.613 83.3661 292.726 83.5201 292.8L101.76 303.32C107.11 306.193 113.12 307.614 119.19 307.44C124.246 307.496 129.235 306.282 133.7 303.91C137.8 301.56 139.82 298.43 139.82 295.24L139.83 295.22Z" fill="#001E3B"/>
<path opacity="0.4" d="M139.83 295.22V293.28H139.64V293.56C139.525 293.021 139.358 292.496 139.14 291.99C138.14 289.61 135.97 287.33 132.7 285.44L114.47 274.91C114.043 274.698 113.572 274.587 113.095 274.587C112.618 274.587 112.147 274.698 111.72 274.91L83.8401 291C83.4964 290.715 83.1994 290.377 82.9601 290V292C82.9773 292.17 83.0378 292.333 83.1358 292.473C83.2338 292.613 83.3661 292.726 83.5201 292.8L101.76 303.32C107.11 306.193 113.12 307.614 119.19 307.44C124.246 307.496 129.235 306.282 133.7 303.91C137.8 301.56 139.82 298.43 139.82 295.24L139.83 295.22Z" fill="black"/>
<path d="M139.14 292C138.14 289.62 135.97 287.34 132.7 285.45L114.47 274.92C114.043 274.708 113.572 274.597 113.095 274.597C112.618 274.597 112.147 274.708 111.72 274.92L83.8401 291L101.76 301.34C107.112 304.208 113.12 305.628 119.19 305.46C124.245 305.511 129.233 304.298 133.7 301.93C137.38 299.81 139.39 297.08 139.76 294.23C139.661 293.461 139.452 292.71 139.14 292Z" fill="#001E3B"/>
<path opacity="0.2" d="M139.14 292C138.14 289.62 135.97 287.34 132.7 285.45L114.47 274.92C114.043 274.708 113.572 274.597 113.095 274.597C112.618 274.597 112.147 274.708 111.72 274.92L83.8401 291L101.76 301.34C107.112 304.208 113.12 305.628 119.19 305.46C124.245 305.511 129.233 304.298 133.7 301.93C137.38 299.81 139.39 297.08 139.76 294.23C139.661 293.461 139.452 292.71 139.14 292Z" fill="black"/>
<path d="M139.76 294.24C139.663 293.464 139.454 292.706 139.14 291.99C138.14 289.61 135.97 287.33 132.7 285.44L114.47 274.91C114.043 274.698 113.572 274.587 113.095 274.587C112.618 274.587 112.147 274.698 111.72 274.91L83.84 291L83.52 290.82C83.3541 290.763 83.2101 290.656 83.1081 290.514C83.0061 290.371 82.9513 290.2 82.9513 290.025C82.9513 289.85 83.0061 289.679 83.1081 289.536C83.2101 289.394 83.3541 289.287 83.52 289.23L111.72 273C112.145 272.781 112.617 272.666 113.095 272.666C113.573 272.666 114.045 272.781 114.47 273L132.7 283.53C135.97 285.42 138.12 287.7 139.14 290.08C139.475 290.839 139.691 291.645 139.78 292.47C139.845 293.059 139.838 293.653 139.76 294.24Z" fill="#001E3B"/>
<path opacity="0.3" d="M139.76 294.24C139.663 293.464 139.454 292.706 139.14 291.99C138.14 289.61 135.97 287.33 132.7 285.44L114.47 274.91C114.043 274.698 113.572 274.587 113.095 274.587C112.618 274.587 112.147 274.698 111.72 274.91L83.84 291L83.52 290.82C83.3541 290.763 83.2101 290.656 83.1081 290.514C83.0061 290.371 82.9513 290.2 82.9513 290.025C82.9513 289.85 83.0061 289.679 83.1081 289.536C83.2101 289.394 83.3541 289.287 83.52 289.23L111.72 273C112.145 272.781 112.617 272.666 113.095 272.666C113.573 272.666 114.045 272.781 114.47 273L132.7 283.53C135.97 285.42 138.12 287.7 139.14 290.08C139.475 290.839 139.691 291.645 139.78 292.47C139.845 293.059 139.838 293.653 139.76 294.24Z" fill="black"/>
<path d="M84.14 288.96L112.33 272.68L111.7 271.21L84.76 286.77L84.14 288.96Z" fill="#001E3B"/>
<path opacity="0.1" d="M84.14 288.96L112.33 272.68L111.7 271.21L84.76 286.77L84.14 288.96Z" fill="black"/>
<path d="M109.63 248C109.618 247.767 109.551 247.541 109.435 247.339C109.318 247.138 109.156 246.966 108.96 246.84L74.64 227C74.4334 226.891 74.2034 226.835 73.97 226.835C73.7366 226.835 73.5066 226.891 73.3 227L72.54 227.44C72.3444 227.566 72.1817 227.738 72.0652 227.939C71.9487 228.141 71.8818 228.367 71.87 228.6V254.91C71.8834 255.142 71.9509 255.368 72.0673 255.569C72.1836 255.771 72.3455 255.942 72.54 256.07L106.86 275.89C107.07 275.993 107.301 276.047 107.535 276.047C107.769 276.047 108 275.993 108.21 275.89L108.96 275.45C109.154 275.322 109.316 275.151 109.433 274.95C109.549 274.748 109.617 274.522 109.63 274.29V248Z" fill="#F5F5F5"/>
<path d="M109.44 247.3L107.53 248.4L72.0699 227.92C72.1803 227.712 72.3421 227.537 72.5399 227.41L73.2999 226.98C73.5066 226.871 73.7365 226.815 73.9699 226.815C74.2034 226.815 74.4333 226.871 74.6399 226.98L109 246.8C109.188 246.925 109.34 247.098 109.44 247.3Z" fill="#E0E0E0"/>
<path d="M107.54 248.39L107.19 248.6C107.3 248.647 107.393 248.727 107.455 248.829C107.518 248.931 107.548 249.05 107.54 249.17V275.48C107.55 275.566 107.535 275.652 107.498 275.73C107.461 275.808 107.403 275.874 107.33 275.92C107.227 275.96 107.113 275.96 107.01 275.92L106.87 275.86L72.54 256.05C72.3461 255.922 72.1846 255.75 72.0683 255.549C71.952 255.348 71.8841 255.122 71.87 254.89V228.58C71.8789 228.343 71.9477 228.113 72.07 227.91L107.54 248.39Z" fill="#EBEBEB"/>
<path opacity="0.2" d="M107.53 248.4L91.64 254.33C91.091 254.539 90.487 254.554 89.9284 254.372C89.3697 254.19 88.8903 253.822 88.57 253.33L86 249.41L71.94 227.84L85.51 249.56L71.87 254.9C71.8782 255.138 71.9508 255.37 72.08 255.57L85.55 249.62L88.55 254.37C88.8796 254.898 89.3886 255.29 89.9836 255.474C90.5786 255.658 91.2199 255.621 91.79 255.37L93.9 254.44L107.37 275.93C107.439 275.881 107.494 275.814 107.529 275.737C107.565 275.66 107.579 275.574 107.57 275.49V275L93.93 254.4L107.53 248.4Z" fill="black"/>
<path d="M101.51 252.61C101.496 252.378 101.428 252.152 101.312 251.951C101.195 251.75 101.034 251.578 100.84 251.45L66.51 231.64C66.3034 231.531 66.0734 231.475 65.84 231.475C65.6065 231.475 65.3766 231.531 65.17 231.64L64.41 232.07C64.2161 232.198 64.0546 232.37 63.9383 232.571C63.822 232.772 63.7541 232.998 63.74 233.23V259.54C63.7549 259.773 63.823 260 63.9392 260.203C64.0553 260.406 64.2164 260.579 64.41 260.71L98.74 280.52C98.9466 280.629 99.1766 280.685 99.41 280.685C99.6434 280.685 99.8734 280.629 100.08 280.52L100.84 280.09C101.034 279.962 101.195 279.79 101.312 279.589C101.428 279.388 101.496 279.162 101.51 278.93V252.61Z" fill="#F5F5F5"/>
<path d="M101.31 252L99.4099 253.1L63.9399 232.57C64.0534 232.367 64.2148 232.196 64.4099 232.07L65.1699 231.64C65.3766 231.531 65.6065 231.475 65.8399 231.475C66.0734 231.475 66.3033 231.531 66.5099 231.64L100.84 251.45C101.041 251.59 101.203 251.779 101.31 252Z" fill="#E0E0E0"/>
<path d="M99.41 253.05L99.06 253.26C99.17 253.307 99.2628 253.387 99.3254 253.489C99.3881 253.591 99.4176 253.71 99.41 253.83V280.14C99.4197 280.226 99.4052 280.312 99.3681 280.39C99.3309 280.468 99.2727 280.534 99.2 280.58C99.0971 280.62 98.9829 280.62 98.88 280.58L98.74 280.52L64.41 260.71C64.2161 260.582 64.0546 260.41 63.9383 260.209C63.822 260.008 63.7541 259.782 63.74 259.55V233.24C63.7489 233.003 63.8177 232.773 63.94 232.57L99.41 253.05Z" fill="#EBEBEB"/>
<path opacity="0.2" d="M99.41 253.05L83.51 259C82.9621 259.205 82.3609 259.217 81.8049 259.036C81.2489 258.854 80.7711 258.489 80.45 258L77.89 254.09L63.81 232.5L77.38 254.22L63.74 259.56C63.7605 259.796 63.8321 260.025 63.95 260.23L77.42 254.23L80.42 258.98C80.7493 259.506 81.2565 259.896 81.8493 260.08C82.4421 260.263 83.0811 260.228 83.65 259.98L85.77 259.05L99.2 280.58C99.2727 280.534 99.3309 280.468 99.3681 280.39C99.4052 280.312 99.4197 280.226 99.41 280.14V279.7L85.8 259.06L99.41 253.05Z" fill="black"/>
<path d="M93.38 257.27C93.3682 257.037 93.3013 256.811 93.1848 256.609C93.0683 256.408 92.9056 256.236 92.71 256.11L58.39 236.29C58.1819 236.186 57.9526 236.132 57.72 236.132C57.4874 236.132 57.2581 236.186 57.05 236.29L56.29 236.73C56.0944 236.856 55.9317 237.028 55.8152 237.229C55.6987 237.431 55.6318 237.657 55.62 237.89V264.2C55.6318 264.433 55.6987 264.659 55.8152 264.861C55.9317 265.062 56.0944 265.234 56.29 265.36L90.61 285.18C90.82 285.283 91.051 285.337 91.285 285.337C91.519 285.337 91.75 285.283 91.96 285.18L92.71 284.74C92.9056 284.614 93.0683 284.442 93.1848 284.241C93.3013 284.039 93.3682 283.813 93.38 283.58V257.27Z" fill="#F5F5F5"/>
<path d="M93.1899 256.61L91.2799 257.71L55.8199 237.23C55.9306 237.025 56.0925 236.853 56.2899 236.73L57.0499 236.29C57.258 236.186 57.4874 236.132 57.7199 236.132C57.9525 236.132 58.1819 236.186 58.3899 236.29L92.7099 256.11C92.9104 256.232 93.0758 256.405 93.1899 256.61Z" fill="#E0E0E0"/>
<path d="M91.13 285.32C91.1727 285.331 91.2173 285.331 91.26 285.32C91.2402 285.331 91.2178 285.337 91.195 285.337C91.1722 285.337 91.1498 285.331 91.13 285.32Z" fill="#001E3B"/>
<path d="M91.29 257.7L90.94 257.91C91.05 257.957 91.1428 258.037 91.2054 258.139C91.2681 258.242 91.2976 258.36 91.29 258.48V284.8C91.299 284.884 91.284 284.969 91.2469 285.045C91.2097 285.121 91.1519 285.185 91.08 285.23C90.9771 285.27 90.8629 285.27 90.76 285.23L90.62 285.18L56.29 265.36C56.0944 265.234 55.9317 265.062 55.8152 264.861C55.6987 264.659 55.6318 264.433 55.62 264.2V237.9C55.6289 237.663 55.6977 237.433 55.82 237.23L91.29 257.7Z" fill="#EBEBEB"/>
<path opacity="0.2" d="M91.28 257.71L75.39 263.65C74.8407 263.856 74.2378 263.869 73.6801 263.687C73.1224 263.505 72.6429 263.14 72.32 262.65L69.77 258.74L55.69 237.16L69.26 258.87L55.62 264.21C55.6282 264.448 55.7008 264.68 55.83 264.88L69.3 258.93L72.3 263.68C72.6296 264.208 73.1386 264.6 73.7336 264.784C74.3286 264.968 74.9699 264.931 75.54 264.68L77.65 263.74L91.12 285.23C91.1909 285.182 91.2471 285.116 91.2824 285.038C91.3178 284.961 91.3308 284.875 91.32 284.79V284.35L77.72 263.71L91.28 257.71Z" fill="black"/>
<path d="M108.55 238C105.82 236.57 102.2 236.82 98.24 239.12C93.79 241.67 89.78 246.31 86.97 251.62C86.3167 252.851 85.7292 254.116 85.21 255.41C83.6669 259.111 82.8357 263.071 82.76 267.08V289.3C82.2831 289.305 81.8125 289.191 81.39 288.97L41.9 266.15C41.5026 265.887 41.1719 265.535 40.9341 265.122C40.6963 264.709 40.558 264.246 40.53 263.77V242.71C40.53 232.19 47.46 219.71 56 214.71C60 212.37 63.73 212.18 66.49 213.71L108.55 238Z" fill="#001E3B"/>
<path opacity="0.2" d="M108.55 238C105.82 236.57 102.2 236.82 98.24 239.12C93.79 241.67 89.78 246.31 86.97 251.62C86.3167 252.851 85.7292 254.116 85.21 255.41C83.6669 259.111 82.8357 263.071 82.76 267.08V289.3C82.2831 289.305 81.8125 289.191 81.39 288.97L41.9 266.15C41.5026 265.887 41.1719 265.535 40.9341 265.122C40.6963 264.709 40.558 264.246 40.53 263.77V242.71C40.53 232.19 47.46 219.71 56 214.71C60 212.37 63.73 212.18 66.49 213.71L108.55 238Z" fill="black"/>
<path opacity="0.1" d="M41.9 266.15L81.39 289C81.8125 289.221 82.2831 289.335 82.76 289.33V267.11C82.7745 265.019 83.0227 262.936 83.5 260.9L41.26 236.51C40.7908 238.544 40.546 240.623 40.53 242.71V263.77C40.558 264.246 40.6963 264.709 40.9341 265.122C41.1719 265.535 41.5026 265.887 41.9 266.15Z" fill="black"/>
<path d="M85.21 255.44C83.6669 259.141 82.8357 263.101 82.76 267.11V289.3C82.5919 289.295 82.4245 289.275 82.26 289.24C82.26 287.97 82.26 280.85 82.26 267.11C82.26 250.8 94.81 240.43 98.26 239.11C93.81 241.66 89.8 246.3 86.99 251.61C86.3285 252.854 85.7344 254.132 85.21 255.44Z" fill="#001E3B"/>
<path opacity="0.4" d="M85.21 255.44C83.6669 259.141 82.8357 263.101 82.76 267.11V289.3C82.5919 289.295 82.4245 289.275 82.26 289.24C82.26 287.97 82.26 280.85 82.26 267.11C82.26 250.8 94.81 240.43 98.26 239.11C93.81 241.66 89.8 246.3 86.99 251.61C86.3285 252.854 85.7344 254.132 85.21 255.44Z" fill="black"/>
<path d="M84.7601 286.77C84.5401 286.9 84.3501 286.77 84.3501 286.53V267.12C84.4221 263.386 85.185 259.697 86.6001 256.24L86.6901 256.03C87.2355 254.66 87.8633 253.324 88.5701 252.03C91.3001 247 95.0001 242.82 99.0001 240.52C100.733 239.428 102.723 238.81 104.77 238.73C105.815 238.722 106.846 238.973 107.77 239.46C110.47 240.9 112.05 244.38 112.05 249.25V270.5C112.041 270.642 112 270.78 111.929 270.903C111.857 271.026 111.759 271.131 111.64 271.21L112.26 272.68L112.4 272.6C112.614 272.443 112.805 272.258 112.97 272.05C113.369 271.555 113.6 270.945 113.63 270.31V249.25C113.63 243.62 111.63 239.7 108.48 238.04C105.75 236.6 102.13 236.85 98.1701 239.15C93.7201 241.7 89.7101 246.33 86.9001 251.66C86.247 252.888 85.6595 254.15 85.1401 255.44C83.595 259.144 82.7637 263.107 82.6901 267.12V289.29H83.0001C83.3988 289.267 83.7878 289.158 84.1401 288.97L84.7601 286.77Z" fill="#001E3B"/>
<path opacity="0.1" d="M84.7601 286.77C84.5401 286.9 84.3501 286.77 84.3501 286.53V267.12C84.4221 263.386 85.185 259.697 86.6001 256.24L86.6901 256.03C87.2355 254.66 87.8633 253.324 88.5701 252.03C91.3001 247 95.0001 242.82 99.0001 240.52C100.733 239.428 102.723 238.81 104.77 238.73C105.815 238.722 106.846 238.973 107.77 239.46C110.47 240.9 112.05 244.38 112.05 249.25V270.5C112.041 270.642 112 270.78 111.929 270.903C111.857 271.026 111.759 271.131 111.64 271.21L112.26 272.68L112.4 272.6C112.614 272.443 112.805 272.258 112.97 272.05C113.369 271.555 113.6 270.945 113.63 270.31V249.25C113.63 243.62 111.63 239.7 108.48 238.04C105.75 236.6 102.13 236.85 98.1701 239.15C93.7201 241.7 89.7101 246.33 86.9001 251.66C86.247 252.888 85.6595 254.15 85.1401 255.44C83.595 259.144 82.7637 263.107 82.6901 267.12V289.29H83.0001C83.3988 289.267 83.7878 289.158 84.1401 288.97L84.7601 286.77Z" fill="black"/>
<path d="M178.94 229.88C178.986 228.978 179.246 228.099 179.698 227.317C180.15 226.535 180.781 225.871 181.54 225.38L309.71 151.38C310.516 150.971 311.406 150.757 312.31 150.757C313.214 150.757 314.104 150.971 314.91 151.38L317.84 153.07C318.595 153.564 319.223 154.229 319.673 155.01C320.123 155.792 320.382 156.669 320.43 157.57V259.45C320.38 260.35 320.119 261.226 319.67 262.008C319.22 262.789 318.593 263.454 317.84 263.95L189.66 338C188.855 338.405 187.966 338.615 187.065 338.615C186.164 338.615 185.275 338.405 184.47 338L181.54 336.31C180.785 335.815 180.156 335.151 179.705 334.369C179.253 333.588 178.991 332.711 178.94 331.81V229.88Z" fill="#001E3B"/>
<g opacity="0.7">
<path d="M178.94 229.88C178.986 228.978 179.246 228.099 179.698 227.317C180.15 226.535 180.781 225.871 181.54 225.38L309.71 151.38C310.516 150.971 311.406 150.757 312.31 150.757C313.214 150.757 314.104 150.971 314.91 151.38L317.84 153.07C318.595 153.564 319.223 154.229 319.673 155.01C320.123 155.792 320.382 156.669 320.43 157.57V259.45C320.38 260.35 320.119 261.226 319.67 262.008C319.22 262.789 318.593 263.454 317.84 263.95L189.66 338C188.855 338.405 187.966 338.615 187.065 338.615C186.164 338.615 185.275 338.405 184.47 338L181.54 336.31C180.785 335.815 180.156 335.151 179.705 334.369C179.253 333.588 178.991 332.711 178.94 331.81V229.88Z" fill="white"/>
</g>
<path d="M179.7 227.32L187.07 231.57L319.67 155C319.23 154.211 318.601 153.545 317.84 153.06L314.9 151.38C314.099 150.966 313.211 150.75 312.31 150.75C311.409 150.75 310.521 150.966 309.72 151.38L181.54 225.38C180.769 225.856 180.134 226.525 179.7 227.32Z" fill="#001E3B"/>
<path opacity="0.8" d="M179.7 227.32L187.07 231.57L319.67 155C319.23 154.211 318.601 153.545 317.84 153.06L314.9 151.38C314.099 150.966 313.211 150.75 312.31 150.75C311.409 150.75 310.521 150.966 309.72 151.38L181.54 225.38C180.769 225.856 180.134 226.525 179.7 227.32Z" fill="white"/>
<path opacity="0.1" d="M178.94 229.87V331.75C178.986 332.652 179.246 333.531 179.698 334.313C180.15 335.095 180.781 335.759 181.54 336.25L184.47 337.95C184.697 338.076 184.935 338.183 185.18 338.27C185.528 338.384 185.886 338.464 186.25 338.51C186.933 338.597 187.625 338.573 188.3 338.44L188.81 338.31L189.13 338.2C188.928 338.28 188.712 338.317 188.495 338.309C188.278 338.3 188.065 338.246 187.87 338.15C187.591 337.969 187.369 337.715 187.227 337.414C187.086 337.114 187.031 336.78 187.07 336.45V234.57C187.043 234.108 187.158 233.649 187.399 233.254C187.64 232.859 187.996 232.547 188.42 232.36L187.07 231.57L179.7 227.32C179.233 228.091 178.972 228.969 178.94 229.87Z" fill="#001E3B"/>
<path opacity="0.05" d="M178.94 229.87V331.75C178.986 332.652 179.246 333.531 179.698 334.313C180.15 335.095 180.781 335.759 181.54 336.25L184.47 337.95C184.697 338.076 184.935 338.183 185.18 338.27C185.528 338.384 185.886 338.464 186.25 338.51C186.933 338.597 187.625 338.573 188.3 338.44L188.81 338.31L189.13 338.2C188.928 338.28 188.712 338.317 188.495 338.309C188.278 338.3 188.065 338.246 187.87 338.15C187.591 337.969 187.369 337.715 187.227 337.414C187.086 337.114 187.031 336.78 187.07 336.45V234.57C187.043 234.108 187.158 233.649 187.399 233.254C187.64 232.859 187.996 232.547 188.42 232.36L187.07 231.57L179.7 227.32C179.233 228.091 178.972 228.969 178.94 229.87Z" fill="black"/>
<path opacity="0.2" d="M187.07 231.57L248.62 254.57C250.75 255.366 253.087 255.412 255.247 254.701C257.406 253.991 259.259 252.565 260.5 250.66L270.38 235.51L319.67 155L272.35 236.07L320.43 259.48C320.385 260.401 320.106 261.296 319.62 262.08L272.2 236.32L260.72 254.7C259.445 256.743 257.476 258.257 255.174 258.964C252.872 259.672 250.392 259.524 248.19 258.55L240 254.94L187.85 338.15C187.571 337.969 187.349 337.715 187.207 337.414C187.066 337.114 187.011 336.78 187.05 336.45V334.75L239.74 254.83L187.07 231.57Z" fill="#001E3B"/>
<path opacity="0.05" d="M187.07 231.57L248.62 254.57C250.75 255.366 253.087 255.412 255.247 254.701C257.406 253.991 259.259 252.565 260.5 250.66L270.38 235.51L319.67 155L272.35 236.07L320.43 259.48C320.385 260.401 320.106 261.296 319.62 262.08L272.2 236.32L260.72 254.7C259.445 256.743 257.476 258.257 255.174 258.964C252.872 259.672 250.392 259.524 248.19 258.55L240 254.94L187.85 338.15C187.571 337.969 187.349 337.715 187.207 337.414C187.066 337.114 187.011 336.78 187.05 336.45V334.75L239.74 254.83L187.07 231.57Z" fill="black"/>
<path d="M211.44 248.66C211.488 247.759 211.747 246.882 212.197 246.1C212.647 245.319 213.275 244.654 214.03 244.16L342.21 170.16C343.014 169.751 343.903 169.537 344.805 169.537C345.707 169.537 346.596 169.751 347.4 170.16L350.33 171.85C351.087 172.343 351.717 173.007 352.168 173.789C352.62 174.571 352.881 175.448 352.93 176.35V278.23C352.879 279.131 352.618 280.008 352.166 280.79C351.715 281.572 351.086 282.236 350.33 282.73L222.16 356.73C221.353 357.135 220.463 357.345 219.56 357.345C218.657 357.345 217.767 357.135 216.96 356.73L214 355C213.248 354.503 212.622 353.838 212.172 353.057C211.723 352.275 211.462 351.4 211.41 350.5L211.44 248.66Z" fill="#001E3B"/>
<g opacity="0.5">
<path d="M211.44 248.66C211.488 247.759 211.747 246.882 212.197 246.1C212.647 245.319 213.275 244.654 214.03 244.16L342.21 170.16C343.014 169.751 343.903 169.537 344.805 169.537C345.707 169.537 346.596 169.751 347.4 170.16L350.33 171.85C351.087 172.343 351.717 173.007 352.168 173.789C352.62 174.571 352.881 175.448 352.93 176.35V278.23C352.879 279.131 352.618 280.008 352.166 280.79C351.715 281.572 351.086 282.236 350.33 282.73L222.16 356.73C221.353 357.135 220.463 357.345 219.56 357.345C218.657 357.345 217.767 357.135 216.96 356.73L214 355C213.248 354.503 212.622 353.838 212.172 353.057C211.723 352.275 211.462 351.4 211.41 350.5L211.44 248.66Z" fill="white"/>
</g>
<path d="M212.19 246.1L219.57 250.35L352.17 173.79C351.73 173.001 351.101 172.335 350.34 171.85L347.4 170.17C346.598 169.756 345.708 169.54 344.805 169.54C343.902 169.54 343.012 169.756 342.21 170.17L214 244.16C213.24 244.641 212.617 245.309 212.19 246.1Z" fill="#001E3B"/>
<path opacity="0.6" d="M212.19 246.1L219.57 250.35L352.17 173.79C351.73 173.001 351.101 172.335 350.34 171.85L347.4 170.17C346.598 169.756 345.708 169.54 344.805 169.54C343.902 169.54 343.012 169.756 342.21 170.17L214 244.16C213.24 244.641 212.617 245.309 212.19 246.1Z" fill="white"/>
<path opacity="0.1" d="M211.43 248.65V350.53C211.478 351.424 211.736 352.295 212.183 353.071C212.629 353.847 213.252 354.508 214 355L216.92 356.7C217.151 356.826 217.391 356.933 217.64 357.02C217.988 357.135 218.346 357.215 218.71 357.26C219.393 357.347 220.085 357.323 220.76 357.19L221.26 357.05C221.367 357.02 221.471 356.98 221.57 356.93C221.374 357.015 221.163 357.059 220.95 357.059C220.737 357.059 220.525 357.015 220.33 356.93C220.052 356.746 219.83 356.489 219.689 356.188C219.548 355.886 219.493 355.551 219.53 355.22V253.35C219.503 252.888 219.618 252.429 219.859 252.034C220.1 251.639 220.456 251.327 220.88 251.14L219.53 250.35L212.15 246.1C211.702 246.877 211.454 247.753 211.43 248.65Z" fill="black"/>
<path opacity="0.4" d="M219.57 250.35L281.12 273.35C283.25 274.146 285.587 274.192 287.747 273.481C289.906 272.771 291.759 271.345 293 269.44L302.89 254.3L352.18 173.79L304.86 254.86L352.94 278.27C352.895 279.191 352.616 280.086 352.13 280.87L304.7 255.1L293.21 273.48C291.935 275.521 289.968 277.033 287.668 277.74C285.368 278.447 282.891 278.302 280.69 277.33L272.51 273.72L220.37 356.94C220.092 356.756 219.87 356.499 219.729 356.198C219.588 355.896 219.533 355.561 219.57 355.23V353.53L272.26 273.61L219.57 250.35Z" fill="#001E3B"/>
<path opacity="0.05" d="M219.57 250.35L281.12 273.35C283.25 274.146 285.587 274.192 287.747 273.481C289.906 272.771 291.759 271.345 293 269.44L302.89 254.3L352.18 173.79L304.86 254.86L352.94 278.27C352.895 279.191 352.616 280.086 352.13 280.87L304.7 255.1L293.21 273.48C291.935 275.521 289.968 277.033 287.668 277.74C285.368 278.447 282.891 278.302 280.69 277.33L272.51 273.72L220.37 356.94C220.092 356.756 219.87 356.499 219.729 356.198C219.588 355.896 219.533 355.561 219.57 355.23V353.53L272.26 273.61L219.57 250.35Z" fill="black"/>
<path d="M244.2 268.26L377.58 191.26L382.92 194.34C383.648 194.817 384.255 195.458 384.691 196.212C385.127 196.965 385.38 197.811 385.43 198.68V297.08C385.381 297.95 385.129 298.796 384.693 299.55C384.257 300.304 383.65 300.944 382.92 301.42L254.56 375.52C253.785 375.911 252.928 376.115 252.06 376.115C251.192 376.115 250.335 375.911 249.56 375.52L246.73 373.89C246.001 373.413 245.395 372.772 244.959 372.018C244.523 371.265 244.27 370.419 244.22 369.55L244.2 268.26Z" fill="#001E3B"/>
<path opacity="0.2" d="M244.2 268.26L377.58 191.26L382.92 194.34C383.648 194.817 384.255 195.458 384.691 196.212C385.127 196.965 385.38 197.811 385.43 198.68V297.08C385.381 297.95 385.129 298.796 384.693 299.55C384.257 300.304 383.65 300.944 382.92 301.42L254.56 375.52C253.785 375.911 252.928 376.115 252.06 376.115C251.192 376.115 250.335 375.911 249.56 375.52L246.73 373.89C246.001 373.413 245.395 372.772 244.959 372.018C244.523 371.265 244.27 370.419 244.22 369.55L244.2 268.26Z" fill="black"/>
<path d="M376.85 182.6L377.39 182.3L375.32 181.1C375.146 180.995 374.961 180.908 374.77 180.84L316.07 159.08C315.262 158.817 314.392 158.814 313.583 159.072C312.773 159.331 312.066 159.837 311.56 160.52L245.9 256.41C244.873 258.061 244.287 259.948 244.2 261.89V268.25L246.2 269.44L377.54 191.25V184.88C377.529 184.07 377.29 183.28 376.85 182.6Z" fill="#001E3B"/>
<path opacity="0.1" d="M314.28 161C314.019 161.205 313.789 161.447 313.6 161.72L247.93 257.61C247.39 258.458 246.979 259.382 246.71 260.35L244.71 259.17C244.858 258.677 245.035 258.192 245.24 257.72C245.33 257.52 245.42 257.33 245.52 257.14L245.57 257.05C245.674 256.849 245.791 256.656 245.92 256.47L311.58 160.58C311.679 160.438 311.789 160.304 311.91 160.18L312.26 159.86L314.28 161Z" fill="black"/>
<path opacity="0.35" d="M377.37 182.29C377.193 182.182 377.005 182.092 376.81 182.02L318.1 160.26C317.455 160.045 316.765 159.999 316.097 160.125C315.428 160.251 314.803 160.545 314.28 160.98L312.28 159.8C312.807 159.369 313.434 159.078 314.103 158.952C314.772 158.826 315.462 158.87 316.11 159.08L374.81 180.83C375.002 180.902 375.186 180.992 375.36 181.1L377.37 182.29Z" fill="white"/>
<path opacity="0.2" d="M311.56 160.52C311.662 160.38 311.772 160.246 311.89 160.12C311.767 160.242 311.656 160.376 311.56 160.52Z" fill="black"/>
<path d="M313.6 161.7L247.93 257.59C246.911 259.244 246.329 261.13 246.24 263.07V269.44L379.62 192.44V186.08C379.573 185.217 379.284 184.385 378.787 183.678C378.291 182.971 377.606 182.417 376.81 182.08L318.1 160.27C317.295 160 316.425 159.993 315.616 160.25C314.808 160.507 314.101 161.015 313.6 161.7Z" fill="#001E3B"/>
<path opacity="0.05" d="M379.62 186.06C379.593 185.262 379.348 184.487 378.91 183.82L246.71 260.33C246.429 261.21 246.274 262.126 246.25 263.05V269.42L379.63 192.42L379.62 186.06Z" fill="black"/>
<path d="M373.92 159C373.947 158.733 373.904 158.464 373.795 158.218C373.686 157.973 373.516 157.76 373.3 157.6L369.22 155.25C368.974 155.139 368.702 155.096 368.433 155.124C368.165 155.152 367.908 155.251 367.69 155.41L258.29 218.6C257.659 219.01 257.133 219.563 256.756 220.215C256.379 220.867 256.161 221.598 256.12 222.35V353.35C256.09 353.618 256.133 353.89 256.244 354.136C256.355 354.382 256.529 354.594 256.75 354.75L260.81 357.1C261.056 357.21 261.327 357.254 261.595 357.228C261.863 357.202 262.12 357.106 262.34 356.95L371.76 293.8C372.389 293.388 372.911 292.834 373.287 292.182C373.662 291.531 373.879 290.801 373.92 290.05V159Z" fill="#F0F0F0"/>
<path d="M262.35 357L371.76 293.8C372.388 293.388 372.911 292.834 373.287 292.182C373.662 291.531 373.879 290.801 373.92 290.05V159C373.92 157.62 372.92 157.06 371.76 157.75L262.35 220.94C261.721 221.352 261.199 221.906 260.823 222.558C260.448 223.209 260.231 223.939 260.19 224.69V355.69C260.19 357.1 261.16 357.66 262.35 357Z" fill="#FAFAFA"/>
<path d="M332.47 233C332.366 234.48 332.09 235.943 331.65 237.36C331.256 238.633 330.726 239.86 330.07 241.02C329.502 242.035 328.81 242.976 328.01 243.82C327.348 244.525 326.574 245.117 325.72 245.57C324.79 246.181 323.676 246.449 322.57 246.33C321.927 246.197 321.35 245.844 320.94 245.33C320.7 245.85 320.45 246.37 320.19 246.89C319.91 247.445 319.575 247.971 319.19 248.46C318.758 249.017 318.265 249.523 317.72 249.97C317.06 250.518 316.338 250.988 315.57 251.37C314.751 251.854 313.792 252.045 312.85 251.91C312.023 251.724 311.304 251.216 310.85 250.5C310.23 249.536 309.818 248.453 309.64 247.32C309.376 245.741 309.285 244.138 309.37 242.54C309.437 240.778 309.654 239.025 310.02 237.3C310.352 235.748 310.831 234.231 311.45 232.77C311.995 231.49 312.715 230.292 313.59 229.21C314.344 228.26 315.287 227.476 316.36 226.91C316.716 226.659 317.12 226.482 317.546 226.391C317.972 226.3 318.412 226.296 318.84 226.38C319.386 226.624 319.837 227.043 320.12 227.57V227.03C320.143 226.574 320.269 226.13 320.49 225.73C320.664 225.361 320.942 225.052 321.29 224.84L323.43 223.75C323.546 223.673 323.686 223.639 323.824 223.653C323.963 223.668 324.092 223.73 324.19 223.83C324.305 223.968 324.39 224.128 324.44 224.3C324.489 224.472 324.503 224.652 324.48 224.83L324 237.54C323.96 238.5 324.14 239.13 324.54 239.43C324.75 239.575 325 239.652 325.255 239.652C325.51 239.652 325.76 239.575 325.97 239.43C326.598 239.075 327.103 238.538 327.42 237.89C327.902 236.932 328.171 235.881 328.21 234.81C328.31 233.7 328.38 232.56 328.43 231.38C328.48 230.2 328.48 229.11 328.43 228.11C328.405 226.315 328.136 224.532 327.63 222.81C327.316 221.596 326.614 220.518 325.63 219.74C324.646 219.081 323.449 218.82 322.28 219.01C320.568 219.278 318.917 219.843 317.4 220.68C315.802 221.506 314.344 222.579 313.08 223.86C311.783 225.19 310.655 226.675 309.72 228.28C308.75 229.974 307.965 231.768 307.38 233.63C306.766 235.552 306.334 237.527 306.09 239.53C306.02 240.08 305.96 240.78 305.91 241.65C305.86 242.52 305.82 243.42 305.78 244.36C305.74 245.3 305.71 246.21 305.69 247.09C305.67 247.97 305.69 248.66 305.69 249.19C305.735 250.804 306.025 252.403 306.55 253.93C306.929 255.111 307.62 256.169 308.55 256.99C309.431 257.721 310.545 258.111 311.69 258.09C313.175 258.04 314.627 257.632 315.92 256.9C316.935 256.387 317.914 255.805 318.85 255.16C319.621 254.626 320.353 254.038 321.04 253.4C321.612 252.851 322.153 252.27 322.66 251.66C323.11 251.09 323.52 250.54 323.89 250C324.26 249.46 324.45 249.17 324.64 248.94C324.834 248.692 325.084 248.493 325.37 248.36L328.37 246.8C328.483 246.716 328.619 246.67 328.76 246.67C328.901 246.67 329.038 246.716 329.15 246.8C329.37 246.98 329.46 247.33 329.41 247.87C329.377 248.222 329.267 248.564 329.09 248.87C328.48 250 327.79 251.2 327.03 252.45C326.235 253.75 325.331 254.981 324.33 256.13C323.201 257.408 321.966 258.588 320.64 259.66C319.091 260.9 317.415 261.973 315.64 262.86C313.745 263.953 311.598 264.535 309.41 264.55C307.768 264.502 306.199 263.863 304.99 262.75C303.715 261.487 302.789 259.916 302.3 258.19C301.652 256.06 301.315 253.847 301.3 251.62C301.3 251.08 301.3 250.34 301.3 249.4C301.3 248.47 301.35 247.49 301.39 246.47C301.43 245.45 301.48 244.47 301.53 243.55C301.58 242.63 301.63 241.89 301.68 241.36C301.932 238.709 302.448 236.089 303.22 233.54C304.001 230.899 305.067 228.35 306.4 225.94C307.717 223.548 309.33 221.33 311.2 219.34C313.025 217.373 315.181 215.741 317.57 214.52C319.726 213.277 322.137 212.545 324.62 212.38C326.315 212.312 327.972 212.895 329.25 214.01C330.532 215.277 331.418 216.889 331.8 218.65C332.359 220.891 332.654 223.19 332.68 225.5C332.68 226.5 332.68 227.71 332.61 229.09C332.54 230.47 332.56 231.85 332.47 233ZM313.69 240.32C313.516 241.735 313.723 243.172 314.29 244.48C314.76 245.3 315.48 245.48 316.44 244.97C317.533 244.366 318.368 243.385 318.79 242.21C319.394 240.611 319.712 238.919 319.73 237.21C319.897 235.783 319.698 234.338 319.15 233.01C318.69 232.17 317.95 232.01 316.94 232.53C315.867 233.151 315.054 234.138 314.65 235.31C314.047 236.899 313.722 238.58 313.69 240.28V240.32Z" fill="#001E3B"/>
<path d="M260.18 355.72C260.16 355.964 260.196 356.21 260.284 356.438C260.373 356.667 260.511 356.872 260.69 357.04L256.76 354.78C256.538 354.625 256.361 354.414 256.248 354.168C256.136 353.921 256.091 353.649 256.12 353.38V222.38C256.145 221.626 256.365 220.892 256.76 220.25L260.82 222.59C260.425 223.236 260.204 223.973 260.18 224.73V355.72Z" fill="#E0E0E0"/>
<path d="M382.05 298.38C382.01 298.451 381.963 298.518 381.91 298.58L326.32 281C324.209 280.069 321.834 279.93 319.629 280.61C317.425 281.289 315.54 282.742 314.32 284.7L254.89 373L252.69 374.27C252.445 374.441 252.161 374.548 251.864 374.581C251.567 374.614 251.267 374.573 250.99 374.46L312.1 283.46C313.324 281.506 315.208 280.057 317.411 279.376C319.613 278.695 321.987 278.828 324.1 279.75L382.05 298.38Z" fill="#001E3B"/>
<path opacity="0.4" d="M308.84 293.32L308.98 293.2L254.89 373L252.69 374.27C252.444 374.439 252.16 374.544 251.864 374.577C251.567 374.61 251.267 374.57 250.99 374.46L306.7 292L308.84 293.32Z" fill="white"/>
<path opacity="0.4" d="M382.05 298.38C382.01 298.451 381.963 298.518 381.91 298.58L326.32 281C324.21 280.066 321.833 279.927 319.628 280.607C317.423 281.286 315.538 282.74 314.32 284.7L312.12 283.42C313.346 281.468 315.232 280.023 317.435 279.347C319.638 278.672 322.011 278.811 324.12 279.74L382.05 298.38Z" fill="white"/>
<path d="M385.38 198.05C385.26 197.33 384.88 197.13 384.38 197.47C384.133 197.654 383.917 197.877 383.74 198.13L383.46 198.52L328.61 281.9L320.42 293.31C319.893 293.975 319.194 294.484 318.4 294.781C317.605 295.079 316.744 295.155 315.91 295L308.84 293.32L254.84 273.46C254.477 273.386 254.103 273.386 253.74 273.46C253.599 273.488 253.462 273.532 253.33 273.59L255.33 272.41L307.07 291.41L313.88 293.84C314.714 293.997 315.576 293.922 316.371 293.624C317.166 293.326 317.864 292.817 318.39 292.15L326.58 280.75L381.7 196.98C381.868 196.752 382.079 196.558 382.32 196.41L377.55 193.66L379.55 192.51L382.85 194.41C383.493 194.818 384.047 195.35 384.482 195.975C384.916 196.6 385.222 197.305 385.38 198.05Z" fill="#001E3B"/>
<path opacity="0.4" d="M328.61 281.9L320.42 293.31C319.893 293.975 319.194 294.484 318.4 294.781C317.605 295.079 316.744 295.155 315.91 295L308.84 293.32L308.98 293.2L309.32 292.66L313.95 293.76C314.784 293.917 315.646 293.842 316.441 293.544C317.236 293.247 317.934 292.737 318.46 292.07L326.57 280.79L328.61 281.9Z" fill="white"/>
<path opacity="0.1" d="M382.92 194.32L379.62 192.42L377.62 193.57L382.39 196.32C382.147 196.466 381.936 196.66 381.77 196.89L326.65 280.66L326.57 280.77L328.57 281.88L383.42 198.49L383.7 198.1C383.877 197.847 384.093 197.624 384.34 197.44C384.83 197.1 385.21 197.3 385.34 198.02C385.202 197.274 384.917 196.562 384.502 195.927C384.087 195.292 383.549 194.745 382.92 194.32Z" fill="black"/>
<path d="M256 275.05L244.23 268.26V369.55C244.28 370.419 244.533 371.265 244.969 372.018C245.405 372.772 246.012 373.413 246.74 373.89L249.57 375.52C250.345 375.911 251.202 376.115 252.07 376.115C252.938 376.115 253.795 375.911 254.57 375.52L255.98 374.71L256 275.05Z" fill="#001E3B"/>
<path opacity="0.15" d="M256 275.05L244.23 268.26V369.55C244.28 370.419 244.533 371.265 244.969 372.018C245.405 372.772 246.012 373.413 246.74 373.89L249.57 375.52C250.345 375.911 251.202 376.115 252.07 376.115C252.938 376.115 253.795 375.911 254.57 375.52L255.98 374.71L256 275.05Z" fill="black"/>
<path d="M385.43 198.68V297.07C385.398 297.971 385.129 298.847 384.65 299.61C384.277 300.254 383.777 300.816 383.18 301.26L383.08 301.31C383.029 301.35 382.976 301.387 382.92 301.42L254.56 375.52C254.315 375.694 254.029 375.804 253.731 375.839C253.432 375.874 253.129 375.833 252.85 375.72C252.637 375.596 252.457 375.422 252.327 375.213C252.196 375.004 252.118 374.766 252.1 374.52C252.089 374.37 252.089 374.22 252.1 374.07V275.67C252.078 275.318 252.141 274.965 252.285 274.643C252.43 274.321 252.65 274.038 252.927 273.82C253.205 273.601 253.531 273.454 253.878 273.389C254.225 273.325 254.583 273.346 254.92 273.45L308.92 293.31L315.99 294.99C316.824 295.145 317.685 295.069 318.48 294.771C319.274 294.473 319.973 293.965 320.5 293.3L328.69 281.89L383.54 198.51L383.82 198.12C384.67 196.84 385.43 197.08 385.43 198.68Z" fill="#001E3B"/>
<path d="M382.92 301.42L383.09 301.31L383.18 301.25C383.779 300.812 384.28 300.253 384.65 299.61C385.123 298.859 385.392 297.997 385.43 297.11L328.62 281.91L366.62 310.8L382.92 301.42Z" fill="#001E3B"/>
<path opacity="0.2" d="M382.92 301.42L383.09 301.31L383.18 301.25C383.779 300.812 384.28 300.253 384.65 299.61C385.123 298.859 385.392 297.997 385.43 297.11L328.62 281.91L366.62 310.8L382.92 301.42Z" fill="black"/>
<path d="M252.05 374.07C252.013 374.39 252.067 374.715 252.205 375.006C252.343 375.298 252.559 375.545 252.83 375.72C253.108 375.835 253.411 375.879 253.71 375.845C254.009 375.812 254.294 375.704 254.54 375.53L298.75 350L308.85 293.31L252.05 372.43V374.07Z" fill="#001E3B"/>
<path opacity="0.15" d="M314.29 284.64L252.83 375.72C252.559 375.545 252.343 375.298 252.205 375.006C252.067 374.715 252.013 374.39 252.05 374.07V372.44L312.05 283.44L314.29 284.64Z" fill="black"/>
<path d="M384.65 299.61C384.28 300.253 383.779 300.812 383.18 301.25L383.09 301.31L254.56 375.52C254.314 375.694 254.028 375.802 253.729 375.835C253.43 375.869 253.128 375.825 252.85 375.71L314.32 284.62C315.551 282.652 317.45 281.194 319.668 280.513C321.887 279.831 324.277 279.972 326.4 280.91L384.65 299.61Z" fill="#001E3B"/>
<path opacity="0.15" d="M244.67 259.15L246.67 260.33C246.386 261.217 246.228 262.139 246.2 263.07V269.43L244.2 268.25V261.88C244.229 260.953 244.387 260.034 244.67 259.15Z" fill="black"/>
<path d="M255.4 272.37L253.36 273.55L251.3 272.36L246.23 269.44L248.2 268.27L255.4 272.37Z" fill="#001E3B"/>
<path opacity="0.1" d="M255.49 272.41L248.2 268.27L246.2 269.44L251.27 272.36L253.33 273.55L253.72 273.43C254.083 273.356 254.457 273.356 254.82 273.43L259 275L306.11 292.35L306.85 291.26L255.49 272.41Z" fill="black"/>
<path d="M145 102.07L137.38 106.47C137.419 106.138 137.439 105.804 137.44 105.47V103.27C137.44 99.3399 134.68 97.7499 131.28 99.7099C129.821 100.614 128.57 101.817 127.61 103.24C127.06 98.2999 123.18 96.4599 118.47 99.1799C113.39 102.12 109.26 109.26 109.26 115.18V118.48C109.227 119.799 109.494 121.109 110.04 122.31L103.71 125.96C102.717 126.61 101.892 127.485 101.299 128.513C100.707 129.542 100.365 130.695 100.3 131.88C100.3 134.06 101.83 134.94 103.71 133.88L145 110C145.992 109.352 146.818 108.479 147.411 107.452C148.003 106.425 148.346 105.274 148.41 104.09C148.44 101.87 146.91 101 145 102.07Z" fill="#F0F0F0"/>
<path d="M108.14 76.9999L98.76 82.4099C98.8112 81.9986 98.8379 81.5845 98.84 81.1699V78.4099C98.84 73.5799 95.45 71.6199 91.26 74.0399C89.4599 75.1462 87.9185 76.6262 86.74 78.3799C86.06 72.2999 81.29 70.0399 75.49 73.3799C69.23 76.9999 64.15 85.7999 64.15 92.9999V97.0599C64.1219 98.6855 64.4639 100.296 65.15 101.77L57.36 106.27C56.1357 107.067 55.1166 108.142 54.3851 109.407C53.6537 110.672 53.2306 112.091 53.15 113.55C53.15 116.24 55.04 117.32 57.36 115.98L108.18 86.6399C109.406 85.8443 110.426 84.77 111.158 83.5048C111.89 82.2396 112.312 80.8194 112.39 79.3599C112.35 76.6999 110.47 75.6199 108.14 76.9999Z" fill="#F0F0F0"/>
<path d="M404.96 164.72L440.33 142.07L455.92 147.07L404.96 164.72Z" fill="#001E3B"/>
<path d="M404.96 164.72L435.53 139.22L428.74 131.38L404.96 164.72Z" fill="#001E3B"/>
<path d="M435.53 139.22V145.14L404.96 164.72L435.53 139.22Z" fill="#001E3B"/>
<path opacity="0.25" d="M435.53 139.22V145.14L404.96 164.72L435.53 139.22Z" fill="black"/>
<path d="M440.63 138.73C440.479 138.73 440.332 138.685 440.207 138.6C440.083 138.515 439.987 138.394 439.932 138.254C439.877 138.114 439.865 137.96 439.899 137.813C439.932 137.666 440.009 137.532 440.12 137.43C441.168 136.461 442.135 135.407 443.01 134.28C443.068 134.196 443.142 134.125 443.228 134.071C443.314 134.016 443.41 133.98 443.51 133.964C443.611 133.948 443.713 133.953 443.812 133.978C443.91 134.003 444.003 134.047 444.084 134.109C444.164 134.171 444.232 134.248 444.282 134.337C444.332 134.426 444.363 134.523 444.374 134.625C444.385 134.726 444.375 134.828 444.345 134.925C444.315 135.022 444.266 135.112 444.2 135.19C443.273 136.385 442.25 137.502 441.14 138.53C441 138.656 440.819 138.727 440.63 138.73ZM446.26 131.26C446.142 131.262 446.025 131.235 445.92 131.18C445.832 131.136 445.754 131.076 445.69 131.002C445.626 130.928 445.577 130.842 445.546 130.749C445.515 130.656 445.503 130.558 445.511 130.46C445.519 130.362 445.545 130.267 445.59 130.18C446.463 128.439 447.134 126.604 447.59 124.71C447.636 124.516 447.758 124.349 447.928 124.245C448.097 124.141 448.301 124.109 448.495 124.155C448.689 124.201 448.856 124.323 448.96 124.493C449.064 124.662 449.096 124.866 449.05 125.06C448.578 127.065 447.874 129.009 446.95 130.85C446.886 130.977 446.787 131.082 446.664 131.155C446.542 131.228 446.402 131.264 446.26 131.26ZM449 120.69C448.901 120.686 448.805 120.663 448.715 120.622C448.626 120.58 448.545 120.522 448.478 120.449C448.411 120.377 448.359 120.292 448.325 120.199C448.291 120.107 448.276 120.009 448.28 119.91C448.28 119.5 448.28 119.1 448.28 118.7C448.279 117.155 448.149 115.613 447.89 114.09C447.873 113.993 447.875 113.893 447.896 113.797C447.917 113.7 447.958 113.609 448.014 113.528C448.071 113.448 448.143 113.379 448.226 113.326C448.31 113.273 448.403 113.237 448.5 113.22C448.697 113.188 448.899 113.235 449.062 113.351C449.225 113.467 449.336 113.643 449.37 113.84C449.64 115.446 449.778 117.071 449.78 118.7C449.78 119.12 449.78 119.55 449.78 119.97C449.776 120.069 449.753 120.165 449.712 120.255C449.67 120.344 449.612 120.425 449.539 120.492C449.467 120.559 449.382 120.611 449.289 120.645C449.197 120.679 449.098 120.694 449 120.69ZM447.39 109.88C447.233 109.88 447.08 109.831 446.953 109.739C446.826 109.648 446.73 109.519 446.68 109.37C446.033 107.526 445.22 105.746 444.25 104.05C444.163 103.878 444.144 103.681 444.196 103.496C444.248 103.311 444.367 103.152 444.53 103.05C444.701 102.961 444.9 102.941 445.085 102.993C445.271 103.045 445.43 103.165 445.53 103.33C446.544 105.108 447.391 106.976 448.06 108.91C448.1 109.005 448.119 109.108 448.117 109.211C448.115 109.315 448.092 109.417 448.048 109.511C448.005 109.604 447.943 109.688 447.866 109.757C447.789 109.826 447.698 109.878 447.6 109.91C447.526 109.908 447.452 109.898 447.38 109.88H447.39ZM442.13 100.27C442.016 100.27 441.904 100.243 441.802 100.193C441.699 100.143 441.61 100.07 441.54 99.98C440.34 98.4279 439.023 96.9703 437.6 95.62C437.509 95.5606 437.431 95.4821 437.373 95.3897C437.315 95.2974 437.278 95.1936 437.264 95.0854C437.251 94.9773 437.261 94.8674 437.294 94.7635C437.327 94.6596 437.382 94.5642 437.456 94.4839C437.529 94.4035 437.62 94.3402 437.72 94.2984C437.821 94.2565 437.93 94.2371 438.039 94.2415C438.147 94.2459 438.254 94.274 438.351 94.3238C438.448 94.3736 438.533 94.444 438.6 94.53C440.079 95.9344 441.45 97.4487 442.7 99.06C442.805 99.2142 442.849 99.4021 442.823 99.5871C442.798 99.772 442.704 99.9407 442.56 100.06C442.441 100.178 442.286 100.252 442.12 100.27H442.13ZM434.3 92.59C434.138 92.5907 433.979 92.538 433.85 92.44C432.274 91.2571 430.628 90.1718 428.92 89.19C428.757 89.0883 428.638 88.9287 428.588 88.7431C428.538 88.5576 428.56 88.3599 428.65 88.19C428.748 88.0231 428.908 87.9013 429.095 87.8509C429.282 87.8004 429.481 87.8252 429.65 87.92C431.41 88.9316 433.107 90.0504 434.73 91.27C434.856 91.3644 434.949 91.4961 434.996 91.6464C435.043 91.7966 435.041 91.9578 434.991 92.1072C434.942 92.2565 434.846 92.3864 434.719 92.4784C434.591 92.5705 434.437 92.62 434.28 92.62L434.3 92.59ZM355.71 89.69C355.544 89.6913 355.383 89.6377 355.251 89.5376C355.119 89.4374 355.024 89.2964 354.98 89.1365C354.937 88.9766 354.948 88.8068 355.011 88.6537C355.074 88.5005 355.186 88.3727 355.33 88.29C357.07 87.29 358.87 86.35 360.7 85.48C360.789 85.4378 360.886 85.4136 360.985 85.4088C361.083 85.4041 361.182 85.4188 361.275 85.4523C361.368 85.4857 361.453 85.5372 361.526 85.6037C361.599 85.6703 361.658 85.7506 361.7 85.84C361.744 85.929 361.769 86.0259 361.774 86.1249C361.78 86.2239 361.765 86.3229 361.732 86.4162C361.698 86.5095 361.646 86.5951 361.579 86.6679C361.512 86.7407 361.43 86.7992 361.34 86.84C359.55 87.69 357.78 88.61 356.08 89.59C355.965 89.657 355.833 89.6915 355.7 89.69H355.71ZM424.87 87C424.759 87.0019 424.65 86.978 424.55 86.93C422.77 86.07 420.94 85.28 419.1 84.57C419.004 84.5348 418.917 84.4805 418.843 84.4105C418.769 84.3404 418.71 84.256 418.67 84.1624C418.63 84.0689 418.609 83.9681 418.609 83.8662C418.609 83.7644 418.63 83.6636 418.67 83.57C418.705 83.4744 418.759 83.387 418.829 83.3131C418.9 83.2392 418.984 83.1803 419.078 83.14C419.171 83.0998 419.272 83.0791 419.374 83.079C419.476 83.079 419.576 83.0998 419.67 83.14C421.54 83.86 423.41 84.67 425.23 85.55C425.38 85.6256 425.501 85.7495 425.572 85.9018C425.643 86.0541 425.662 86.226 425.624 86.3898C425.585 86.5536 425.493 86.6999 425.362 86.8052C425.231 86.9104 425.068 86.9684 424.9 86.97L424.87 87ZM365.6 85C365.449 84.9974 365.302 84.9505 365.178 84.8652C365.053 84.7798 364.957 84.6598 364.9 84.52C364.86 84.4264 364.839 84.3256 364.839 84.2238C364.839 84.1219 364.86 84.0211 364.9 83.9276C364.94 83.834 364.999 83.7496 365.073 83.6795C365.147 83.6095 365.234 83.5552 365.33 83.52C367.2 82.79 369.13 82.12 371.06 81.52C371.251 81.463 371.457 81.4842 371.632 81.5789C371.807 81.6736 371.938 81.834 371.995 82.025C372.052 82.216 372.031 82.4217 371.936 82.5971C371.841 82.7724 371.681 82.903 371.49 82.96C369.6 83.52 367.71 84.18 365.88 84.89C365.791 84.9254 365.696 84.9424 365.6 84.94V85ZM414.6 83C414.527 83.0143 414.453 83.0143 414.38 83C412.5 82.43 410.57 81.93 408.64 81.51C408.541 81.4864 408.447 81.4434 408.365 81.3836C408.282 81.3239 408.212 81.2484 408.159 81.1616C408.051 80.9862 408.017 80.7752 408.065 80.575C408.113 80.3748 408.238 80.2017 408.413 80.0939C408.589 79.986 408.8 79.9523 409 80C411 80.43 412.94 80.94 414.86 81.53C414.955 81.5586 415.043 81.6056 415.119 81.6684C415.196 81.7312 415.259 81.8085 415.306 81.8959C415.352 81.9833 415.381 82.079 415.39 82.1775C415.4 82.2761 415.389 82.3755 415.36 82.47C415.311 82.6231 415.216 82.7568 415.086 82.8521C414.957 82.9473 414.801 82.9991 414.64 83H414.6ZM376.1 81.69C375.931 81.6899 375.766 81.6325 375.634 81.5272C375.501 81.4219 375.408 81.2749 375.37 81.11C375.328 80.9152 375.364 80.7117 375.471 80.5434C375.577 80.3751 375.746 80.2553 375.94 80.21C377.89 79.76 379.89 79.38 381.89 79.09C381.99 79.0677 382.095 79.0664 382.196 79.086C382.297 79.1057 382.393 79.1459 382.477 79.2043C382.562 79.2626 382.634 79.3378 382.689 79.4252C382.743 79.5125 382.779 79.6101 382.794 79.7119C382.809 79.8138 382.803 79.9176 382.777 80.017C382.75 80.1165 382.703 80.2093 382.639 80.2898C382.575 80.3703 382.494 80.4367 382.404 80.4849C382.313 80.5331 382.213 80.5621 382.11 80.57C380.11 80.86 378.19 81.23 376.27 81.68L376.1 81.69ZM403.92 80.54H403.81C401.86 80.25 399.87 80.04 397.9 79.91C397.796 79.9128 397.692 79.8938 397.595 79.8542C397.498 79.8146 397.411 79.7552 397.339 79.6799C397.266 79.6046 397.211 79.515 397.175 79.4169C397.139 79.3188 397.124 79.2143 397.131 79.1101C397.138 79.0058 397.167 78.9043 397.215 78.8118C397.264 78.7193 397.331 78.638 397.413 78.573C397.495 78.5081 397.589 78.4609 397.69 78.4345C397.791 78.4082 397.897 78.4032 398 78.42C400 78.55 402 78.76 404 79.05C404.185 79.0804 404.352 79.1788 404.468 79.326C404.584 79.4732 404.64 79.6585 404.626 79.8453C404.613 80.0322 404.529 80.2071 404.393 80.3357C404.257 80.4642 404.077 80.5371 403.89 80.54H403.92ZM387 80C386.801 80.008 386.607 79.9366 386.461 79.8015C386.315 79.6665 386.228 79.4789 386.22 79.28C386.212 79.0811 386.283 78.8872 386.418 78.7409C386.553 78.5946 386.741 78.508 386.94 78.5C388.94 78.34 390.99 78.25 393 78.25C393.199 78.25 393.39 78.329 393.53 78.4697C393.671 78.6103 393.75 78.8011 393.75 79C393.75 79.1989 393.671 79.3897 393.53 79.5303C393.39 79.671 393.199 79.75 393 79.75C391 79.75 389 79.84 387.06 80H387Z" fill="#E0E0E0"/>
</svg>
