<svg width="46" height="45" viewBox="0 0 46 45" fill="none" xmlns="http://www.w3.org/2000/svg">
<path d="M5.77516 29.3229L9.31728 27.2781C9.50914 27.1674 9.73429 27.1289 9.95204 27.1696L16.9214 28.474C17.4941 28.5812 18.0229 28.1403 18.0203 27.5576L17.9931 21.4511C17.9924 21.2852 18.0361 21.1221 18.1198 20.9789L21.6369 14.9575C21.82 14.6441 21.8036 14.2528 21.5949 13.9558L15.6731 5.52665M36.0573 9.30112C25.8478 14.2035 31.4163 20.7004 33.2729 21.6286C36.7572 23.3704 41.6028 23.4847 41.6028 23.4847C41.6179 23.1773 41.6257 22.8679 41.6257 22.5566C41.6257 12.3047 33.3149 3.99396 23.063 3.99396C12.8112 3.99396 4.50037 12.3047 4.50037 22.5566C4.50037 32.8085 12.8112 41.1193 23.063 41.1193C23.3743 41.1193 23.6837 41.1116 23.9912 41.0965M31.8948 41.0075L26.0164 25.51L41.5139 31.3883L34.6418 34.1353L31.8948 41.0075Z" stroke="#F9F8F8" stroke-width="2.7844" stroke-linecap="round" stroke-linejoin="round"/>
</svg>
