<svg width="132" height="32" viewBox="0 0 132 32" fill="none" xmlns="http://www.w3.org/2000/svg">
<path d="M17.1672 20.5619C16.8598 22.6094 16.5956 24.5577 14.119 26.6381" stroke="white" stroke-width="3.30216" stroke-linecap="round"/>
<path d="M14.9114 14.7502C15.5942 11.4728 14.6958 7.26924 11.1325 5.70802C9.50205 4.99367 7.57149 5.01982 5.96723 5.79111C5.47086 6.02975 4.97564 6.34634 4.50171 6.76699C2.03987 8.95215 2 12.6594 2 15.9511V16.569C2 18.216 2.01799 19.8964 2.59099 21.4405C3.3534 23.495 4.96061 25.5483 8.53827 25.5483" stroke="white" stroke-width="3.69842" stroke-linecap="round"/>
<path d="M35.3889 19.77C34.8728 20.8734 34.1165 21.7543 33.1199 22.4127C32.1233 23.0712 31.02 23.4004 29.8098 23.4004C28.0836 23.4004 26.6065 22.7598 25.3786 21.4784C24.1684 20.1971 23.5633 18.6488 23.5633 16.8336C23.5633 14.9828 24.204 13.4345 25.4853 12.1888C26.7667 10.9075 28.3149 10.2668 30.1302 10.2668C31.9098 10.2668 33.458 10.9075 34.775 12.1888C36.0563 13.4701 36.697 15.0184 36.697 16.8336V28.8728H35.3889V19.77ZM30.1302 11.5748C28.6709 11.5748 27.4251 12.0909 26.3929 13.1231C25.3786 14.1375 24.8714 15.3743 24.8714 16.8336C24.8714 18.2929 25.3786 19.5386 26.3929 20.5708C27.4251 21.5852 28.6709 22.0924 30.1302 22.0924C31.5894 22.0924 32.8263 21.5852 33.8407 20.5708C34.8728 19.5386 35.3889 18.2929 35.3889 16.8336C35.3889 15.3743 34.8728 14.1375 33.8407 13.1231C32.8085 12.0909 31.5716 11.5748 30.1302 11.5748ZM48.9455 21.8521C47.9133 22.8843 46.6587 23.4004 45.1816 23.4004C43.7045 23.4004 42.441 22.8843 41.391 21.8521C40.3588 20.8022 39.8427 19.5386 39.8427 18.0615V10.6672H41.1507V18.0615C41.1507 19.1649 41.5423 20.117 42.3253 20.9178C43.1261 21.7009 44.0782 22.0924 45.1816 22.0924C46.3027 22.0924 47.2548 21.7009 48.0379 20.9178C48.8209 20.117 49.2124 19.1649 49.2124 18.0615V10.6672H50.5205V18.0615C50.5205 19.5386 49.9955 20.8022 48.9455 21.8521ZM54.6885 10.6672V23H53.3805V10.6672H54.6885ZM55.1957 6.84993C55.1957 7.17026 55.08 7.4461 54.8487 7.67745C54.6173 7.89101 54.3504 7.99778 54.0479 7.99778C53.7453 7.99778 53.4784 7.89101 53.247 7.67745C53.0157 7.4461 52.9 7.17026 52.9 6.84993C52.9 6.54739 53.0157 6.28934 53.247 6.07579C53.4784 5.84444 53.7453 5.72876 54.0479 5.72876C54.3504 5.72876 54.6173 5.84444 54.8487 6.07579C55.08 6.28934 55.1957 6.54739 55.1957 6.84993ZM59.5429 11.8418C60.5929 10.7918 61.8564 10.2668 63.3335 10.2668C64.8106 10.2668 66.0652 10.7918 67.0974 11.8418C68.1474 12.8739 68.6724 14.1286 68.6724 15.6057V23H67.3644V15.6057C67.3644 14.5023 66.964 13.5591 66.1631 12.7761C65.3801 11.9752 64.4369 11.5748 63.3335 11.5748C62.2124 11.5748 61.2603 11.9752 60.4772 12.7761C59.6942 13.5591 59.3027 14.5023 59.3027 15.6057V23H57.9947V15.6057C57.9947 14.1286 58.5107 12.8739 59.5429 11.8418ZM74.9727 18.4887C74.9727 19.4852 75.3197 20.3395 76.0138 21.0513C76.7256 21.7454 77.5798 22.0924 78.5764 22.0924V23.4004C77.2239 23.4004 76.0671 22.9199 75.1061 21.9589C74.1451 20.9979 73.6647 19.8412 73.6647 18.4887V11.9752H70.9952V10.6672H73.6647V7.11687L74.9727 6.44951V10.6672H78.7099V11.9752H74.9727V18.4887ZM91.6128 19.7433L92.6806 20.5174C92.0222 21.425 91.1857 22.1369 90.1713 22.653C89.1748 23.1513 88.0981 23.4004 86.9413 23.4004C85.0193 23.4004 83.391 22.7598 82.0563 21.4784C80.7038 20.2149 80.0275 18.6666 80.0275 16.8336C80.0275 15.0362 80.6237 13.4968 81.816 12.2155C83.0262 10.9164 84.4854 10.2668 86.1939 10.2668C87.9201 10.2668 89.3883 10.9164 90.5985 12.2155C91.7908 13.4968 92.387 15.0362 92.387 16.8336C92.387 17.1183 92.3781 17.3319 92.3603 17.4743H81.3622C81.5402 18.7912 82.1541 19.8946 83.2041 20.7844C84.2719 21.6564 85.5176 22.0924 86.9413 22.0924C87.8845 22.0924 88.7654 21.8877 89.5841 21.4784C90.4205 21.0513 91.0967 20.4729 91.6128 19.7433ZM86.1939 11.5748C84.9659 11.5748 83.8893 12.0197 82.9639 12.9095C82.0385 13.7816 81.5046 14.876 81.3622 16.1929H91.0523C90.9099 14.876 90.376 13.7816 89.4506 12.9095C88.5252 12.0197 87.4396 11.5748 86.1939 11.5748ZM100.481 10.2668C100.624 10.2668 100.739 10.2757 100.828 10.2935V11.6015C100.757 11.5837 100.642 11.5748 100.481 11.5748C99.3602 11.5748 98.4081 11.9752 97.6251 12.7761C96.8421 13.5591 96.4506 14.5023 96.4506 15.6057V23H95.1425V15.6057C95.1425 14.1286 95.6586 12.8739 96.6908 11.8418C97.7408 10.7918 99.0043 10.2668 100.481 10.2668ZM113.424 12.1888C114.705 13.4701 115.346 15.0184 115.346 16.8336V23H114.038V19.77C113.521 20.8556 112.765 21.7365 111.769 22.4127C110.772 23.0712 109.669 23.4004 108.458 23.4004C106.732 23.4004 105.255 22.7598 104.027 21.4784C102.817 20.1971 102.212 18.6488 102.212 16.8336C102.212 14.9828 102.853 13.4345 104.134 12.1888C105.415 10.9075 106.964 10.2668 108.779 10.2668C110.558 10.2668 112.107 10.9075 113.424 12.1888ZM105.042 20.5708C106.074 21.5852 107.319 22.0924 108.779 22.0924C110.238 22.0924 111.475 21.5852 112.489 20.5708C113.521 19.5386 114.038 18.2929 114.038 16.8336C114.038 15.3743 113.521 14.1375 112.489 13.1231C111.457 12.0909 110.22 11.5748 108.779 11.5748C107.319 11.5748 106.074 12.0909 105.042 13.1231C104.027 14.1375 103.52 15.3743 103.52 16.8336C103.52 18.2929 104.027 19.5386 105.042 20.5708Z" fill="white"/>
<path d="M120.567 18.4887C120.567 19.4852 120.914 20.3395 121.608 21.0513C122.32 21.7454 123.174 22.0924 124.171 22.0924V23.4004C122.818 23.4004 121.661 22.9199 120.7 21.9589C119.739 20.9979 119.259 19.8412 119.259 18.4887V11.9752H116.589V10.6672H119.259V7.11687L120.567 6.44951V10.6672H124.304V11.9752H120.567V18.4887ZM128.645 10.6672V23H127.337V10.6672H128.645ZM129.153 6.84993C129.153 7.17026 129.037 7.4461 128.806 7.67745C128.574 7.89101 128.307 7.99778 128.005 7.99778C127.702 7.99778 127.435 7.89101 127.204 7.67745C126.973 7.4461 126.857 7.17026 126.857 6.84993C126.857 6.54739 126.973 6.28934 127.204 6.07579C127.435 5.84444 127.702 5.72876 128.005 5.72876C128.307 5.72876 128.574 5.84444 128.806 6.07579C129.037 6.28934 129.153 6.54739 129.153 6.84993Z" fill="#C0C0C0"/>
</svg>
