<svg width="46" height="45" viewBox="0 0 46 45" fill="none" xmlns="http://www.w3.org/2000/svg">
<g filter="url(#filter0_d_199_1616)">
<path d="M5.76962 17.9544C5.76599 20.9954 6.56414 23.9836 8.08361 26.6178L5.62439 35.597L14.8137 33.1876C17.3552 34.5713 20.2029 35.2963 23.0967 35.2965H23.1043C32.6571 35.2965 40.4338 27.5229 40.4378 17.9682C40.4396 13.3381 38.6381 8.98471 35.3652 5.70912C32.093 2.43383 27.7408 0.629245 23.1037 0.627411C13.5493 0.627411 5.7736 8.4001 5.76962 17.9544Z" fill="url(#paint0_linear_199_1616)"/>
<path d="M5.15074 17.9489C5.14699 21.0989 5.97371 24.1941 7.54758 26.9227L5 36.2238L14.5186 33.7279C17.1513 35.1616 20.1013 35.9129 23.0991 35.9132H23.1067C33.0023 35.9132 41.0578 27.8598 41.0624 17.9633C41.0639 13.1669 39.1976 8.65694 35.8079 5.26394C32.4177 1.87155 27.9099 0.00183455 23.1067 0C13.2093 0 5.15471 8.05185 5.15074 17.9489ZM10.8195 26.4539L10.4639 25.8898C8.96919 23.5116 8.17818 20.7588 8.18234 17.9499C8.18539 9.72404 14.8803 3.0319 23.1125 3.0319C27.0987 3.03343 30.8452 4.5873 33.6633 7.407C36.4812 10.227 38.0317 13.9753 38.0305 17.9621C38.0268 26.1882 31.3322 32.8816 23.1064 32.8816H23.1009C20.4282 32.8818 17.8045 32.1634 15.5046 30.8018L14.9595 30.4783L9.3112 31.9594L10.8195 26.4539Z" fill="url(#paint1_linear_199_1616)"/>
<path d="M18.6189 10.445C18.2826 9.69804 17.9292 9.68306 17.6096 9.66991C17.3479 9.6586 17.0486 9.65952 16.7498 9.65952C16.4502 9.65952 15.9643 9.77204 15.5534 10.2209C15.1422 10.6697 13.983 11.7549 13.983 13.9625C13.983 16.17 15.5907 18.3027 15.8148 18.6023C16.0393 18.9014 18.9186 23.5761 23.4787 25.3743C27.2689 26.8688 28.04 26.5716 28.8625 26.4967C29.685 26.4221 31.5171 25.4119 31.8907 24.3641C32.2646 23.3165 32.2646 22.4185 32.1524 22.2311C32.0405 22.0443 31.7412 21.9318 31.2926 21.7076C30.8438 21.4832 28.638 20.3978 28.2271 20.2479C27.8156 20.0984 27.5165 20.0238 27.2172 20.473C26.9182 20.9215 26.059 21.9318 25.7972 22.2311C25.5355 22.5307 25.2735 22.5683 24.8249 22.3442C24.3761 22.1189 22.9311 21.6456 21.217 20.1174C19.8833 18.928 18.9828 17.4597 18.7211 17.0106C18.4593 16.5617 18.6932 16.3189 18.918 16.0951C19.1198 15.8942 19.3668 15.5714 19.5913 15.3093C19.8151 15.0473 19.89 14.8605 20.0395 14.5611C20.1893 14.2615 20.1141 13.9998 20.0022 13.7753C19.89 13.5509 19.018 11.3323 18.6189 10.445Z" fill="white"/>
</g>
<defs>
<filter id="filter0_d_199_1616" x="0.878583" y="0" width="44.3052" height="44.4667" filterUnits="userSpaceOnUse" color-interpolation-filters="sRGB">
<feFlood flood-opacity="0" result="BackgroundImageFix"/>
<feColorMatrix in="SourceAlpha" type="matrix" values="0 0 0 0 0 0 0 0 0 0 0 0 0 0 0 0 0 0 127 0" result="hardAlpha"/>
<feOffset dy="4.12142"/>
<feGaussianBlur stdDeviation="2.06071"/>
<feComposite in2="hardAlpha" operator="out"/>
<feColorMatrix type="matrix" values="0 0 0 0 0 0 0 0 0 0 0 0 0 0 0 0 0 0 0.25 0"/>
<feBlend mode="normal" in2="BackgroundImageFix" result="effect1_dropShadow_199_1616"/>
<feBlend mode="normal" in="SourceGraphic" in2="effect1_dropShadow_199_1616" result="shape"/>
</filter>
<linearGradient id="paint0_linear_199_1616" x1="1746.29" y1="3497.59" x2="1746.29" y2="0.627411" gradientUnits="userSpaceOnUse">
<stop stop-color="#1FAF38"/>
<stop offset="1" stop-color="#60D669"/>
</linearGradient>
<linearGradient id="paint1_linear_199_1616" x1="1808.12" y1="3622.38" x2="1808.12" y2="0" gradientUnits="userSpaceOnUse">
<stop stop-color="#F9F9F9"/>
<stop offset="1" stop-color="white"/>
</linearGradient>
</defs>
</svg>
